<svg xmlns="http://www.w3.org/2000/svg" xmlns:xlink="http://www.w3.org/1999/xlink" viewBox="0 0 416.74 412.33"><defs><style>.cls-1{isolation:isolate;}.cls-2{fill:url(#linear-gradient);}.cls-13,.cls-3,.cls-6{fill:none;stroke-miterlimit:10;}.cls-3{stroke:#fff;opacity:0.58;}.cls-4{fill:url(#linear-gradient-2);}.cls-5{fill:#eafaf7;}.cls-6{stroke:#3cb5ac;}.cls-7{fill:#3cb5ac;}.cls-19,.cls-20,.cls-21,.cls-23,.cls-8{mix-blend-mode:multiply;}.cls-8{opacity:0.16;}.cls-9{fill:#74869a;}.cls-10{fill:#4adece;}.cls-11{fill:#ffcaa6;}.cls-12{fill:#fdbc46;}.cls-13{stroke:#4adece;}.cls-14{fill:#f7b2ce;}.cls-15{fill:#2a3e59;}.cls-16{fill:#2c8182;}.cls-17{fill:#edbc9a;}.cls-18{fill:#ffdca4;}.cls-19,.cls-20,.cls-21,.cls-23{opacity:0.15;}.cls-19{fill:url(#White_Black_2);}.cls-20{fill:url(#White_Black_2-2);}.cls-21{fill:url(#White_Black_2-3);}.cls-22{mix-blend-mode:screen;opacity:0.41;fill:url(#White_Black_2-4);}.cls-23{fill:url(#White_Black_2-5);}</style><linearGradient id="linear-gradient" x1="371.68" y1="189.15" x2="333.49" y2="280.41" gradientUnits="userSpaceOnUse"><stop offset="0" stop-color="#a7ded6"></stop><stop offset="1" stop-color="#3cb5ac"></stop></linearGradient><linearGradient id="linear-gradient-2" x1="3159.13" y1="-348.82" x2="3251.85" y2="-354.04" gradientTransform="matrix(-0.96, 0.28, 0.28, 0.96, 3499.28, -241.78)" xlink:href="#linear-gradient"></linearGradient><linearGradient id="White_Black_2" x1="236.12" y1="87.42" x2="182.95" y2="117.4" gradientUnits="userSpaceOnUse"><stop offset="0" stop-color="#fff"></stop><stop offset="1" stop-color="#231f20"></stop></linearGradient><linearGradient id="White_Black_2-2" x1="256.12" y1="114.4" x2="220.54" y2="134.46" xlink:href="#White_Black_2"></linearGradient><linearGradient id="White_Black_2-3" x1="260.62" y1="105.43" x2="256.65" y2="107.67" xlink:href="#White_Black_2"></linearGradient><linearGradient id="White_Black_2-4" x1="166.73" y1="202.08" x2="227.37" y2="202.08" xlink:href="#White_Black_2"></linearGradient><linearGradient id="White_Black_2-5" x1="162.31" y1="307.81" x2="185.7" y2="307.81" xlink:href="#White_Black_2"></linearGradient></defs><g class="cls-1"><g id="Layer_2" data-name="Layer 2"><g id="Layer_2-2" data-name="Layer 2"><path class="cls-2" d="M371.27,221.07c4,2.45,4.71,13.85-6.64,30.05s6.52,13.18.93,28.58-31.29,21-25.27,27.91S309.4,332.9,291.5,333.24s21.94-83.81,31.74-82,2.86,13,19.59-6.11S365.68,217.6,371.27,221.07Z"></path><path class="cls-3" d="M361.64,236.84s-47.75,76-70,93"></path><path class="cls-3" d="M355.18,278.27s-15.4,7.38-27.18,8.92"></path><path class="cls-3" d="M303.41,288.21s-2.93,13.42,2,25.89"></path><path class="cls-4" d="M285,332.9c4.43-11,37.27-47.1,40.13-40.79s40.13-9.34,53.35-1.63S383.07,301,383.07,301s39.88,10.81,32.84,20.77-40-.32-52.11,11.12-31.35,7.88-49,7.67-28.46,6.52-29,5.41S285,332.9,285,332.9Z"></path><path class="cls-3" d="M362.88,322.72s-15.37-7.15-27-8.42"></path><path class="cls-3" d="M394.12,315.72s-64.77-19.5-104.76,25.76"></path><path class="cls-3" d="M325.75,303.25S308.57,316.6,301,330.51"></path><path class="cls-5" d="M122.81,160c-31,37.56-99.29,44.92-85.28,107.35,10.31,46,72.08,12.16,72.08,103.38s200,22.73,215.86-112S253.93,52.43,197.42,62.24C165.45,67.79,155.07,121,122.81,160Z"></path><path class="cls-6" d="M10.89,333.57a99.27,99.27,0,0,1,48.68,10.9"></path><path class="cls-7" d="M11.94,333.52s-8-4-10.8-3.32S.27,335.52,11.94,333.52Z"></path><path class="cls-7" d="M23.63,334.35s-8.87,1.27-10.76,3.46S15.21,342.66,23.63,334.35Z"></path><path class="cls-7" d="M23.72,333.89s-7.78-4.45-8.73-7.18S19,323.06,23.72,333.89Z"></path><path class="cls-7" d="M34.87,335.55s-7.51-4.9-8.29-7.68S30.74,324.46,34.87,335.55Z"></path><path class="cls-7" d="M49.67,340s-7.15-5.4-7.74-8.23S46.32,328.6,49.67,340Z"></path><path class="cls-7" d="M35,336.05s-8.69,2.2-10.33,4.58S27.49,345.21,35,336.05Z"></path><path class="cls-7" d="M49.17,340s-8.69,2.2-10.34,4.58S41.67,349.11,49.17,340Z"></path><g class="cls-8"><path class="cls-9" d="M40.39,349.11c-31.68,2.41,7.72,12.33,75.64,13.5S316.8,366.68,345.86,359,161.77,339.89,40.39,349.11Z"></path></g><rect class="cls-10" x="238.06" y="291.56" width="19.9" height="3.7" transform="translate(-118.45 178.07) rotate(-32.32)"></rect><polygon class="cls-11" points="248.73 275.32 239.35 258.94 229.06 267.69 239.42 282.84 248.73 275.32"></polygon><path class="cls-9" d="M231.77,301.28,256,286.17a1.25,1.25,0,0,0,.29-1.86l-7.57-9-10.36,6.46s2.16,1.73-2.86,7c-4.22,4.46-6,8.15-5.64,11.52A1.25,1.25,0,0,0,231.77,301.28Z"></path><path class="cls-11" d="M148.83,138.93s.14.77.54.9,1,0,1.57-.9c0,0-.13,1,.5,1.44s2.46-2.15,2.91-3S148.83,138.93,148.83,138.93Z"></path><path class="cls-11" d="M162.26,132.65s33.07-12.59,38.6-17.75,14.62-32,14.62-32l-23.64-1-3.07,25s-38.49,23.49-39.85,25.62S160.82,133.41,162.26,132.65Z"></path><path class="cls-12" d="M197,211l26.14,57.31a9.94,9.94,0,0,0,12.62,5.15l4.33-1.67a9.94,9.94,0,0,0,5.53-13.27c-8.7-19.81-27.81-64.38-27.64-73.3C218.17,173.64,197.41,206.11,197,211Z"></path><path class="cls-12" d="M197,211l26.14,57.31a9.94,9.94,0,0,0,12.62,5.15l4.33-1.67a9.94,9.94,0,0,0,5.53-13.27c-8.7-19.81-27.81-64.38-27.64-73.3C218.17,173.64,197.41,206.11,197,211Z"></path><rect class="cls-10" x="163.9" y="216.81" width="122.57" height="7.2" transform="matrix(0.32, -0.95, 0.95, 0.32, -55.11, 364.36)"></rect><path class="cls-10" d="M202.27,279.24c-5.72-29.27-21-52.57-45.39-69.27-18.21-12.47-34.8-16.31-35-16.35l1.58-7c.73.17,18.11,4.2,37.45,17.43,17.88,12.24,40.79,35,48.38,73.83Z"></path><line class="cls-13" x1="280.96" y1="221.93" x2="302.05" y2="281.76"></line><line class="cls-13" x1="302.03" y1="281.96" x2="323.11" y2="341.79"></line><line class="cls-13" x1="293.62" y1="218.89" x2="302.07" y2="281.77"></line><line class="cls-13" x1="302.01" y1="281.95" x2="310.45" y2="344.83"></line><line class="cls-13" x1="346.36" y1="236.35" x2="302.13" y2="281.83"></line><line class="cls-13" x1="301.94" y1="281.89" x2="257.72" y2="327.37"></line><line class="cls-13" x1="354.71" y1="246.34" x2="302.13" y2="281.85"></line><line class="cls-13" x1="301.94" y1="281.87" x2="249.37" y2="317.38"></line><line class="cls-13" x1="364.26" y1="294.67" x2="302.11" y2="281.92"></line><line class="cls-13" x1="301.96" y1="281.8" x2="239.81" y2="269.05"></line><line class="cls-13" x1="360.34" y1="307.09" x2="302.1" y2="281.93"></line><line class="cls-13" x1="301.97" y1="281.79" x2="243.73" y2="256.63"></line><path class="cls-14" d="M376.31,283.63a2.65,2.65,0,0,1-2.65-2.65,71.12,71.12,0,1,0-142.24,0,2.65,2.65,0,1,1-5.3,0A76.42,76.42,0,1,1,379,281,2.65,2.65,0,0,1,376.31,283.63Z"></path><path class="cls-15" d="M302.54,354.9a73,73,0,1,1,73-73A73.12,73.12,0,0,1,302.54,354.9Zm0-136.49A63.45,63.45,0,1,0,366,281.86,63.52,63.52,0,0,0,302.54,218.41Z"></path><line class="cls-13" x1="71.93" y1="222.03" x2="93.02" y2="281.86"></line><line class="cls-13" x1="93" y1="282.06" x2="114.09" y2="341.89"></line><line class="cls-13" x1="84.59" y1="218.99" x2="93.04" y2="281.87"></line><line class="cls-13" x1="92.98" y1="282.05" x2="101.42" y2="344.93"></line><line class="cls-13" x1="137.33" y1="236.44" x2="93.1" y2="281.93"></line><line class="cls-13" x1="92.92" y1="281.99" x2="48.69" y2="327.47"></line><line class="cls-13" x1="145.68" y1="246.44" x2="93.11" y2="281.94"></line><line class="cls-13" x1="92.91" y1="281.97" x2="40.34" y2="317.48"></line><line class="cls-13" x1="155.23" y1="294.77" x2="93.09" y2="282.02"></line><line class="cls-13" x1="92.93" y1="281.9" x2="30.79" y2="269.14"></line><line class="cls-13" x1="151.31" y1="307.19" x2="93.07" y2="282.03"></line><line class="cls-13" x1="92.95" y1="281.88" x2="34.71" y2="256.73"></line><path class="cls-15" d="M93,354.9a73,73,0,1,1,73-73A73.12,73.12,0,0,1,93,354.9Zm0-136.49a63.45,63.45,0,1,0,63.45,63.45A63.52,63.52,0,0,0,93,218.41Z"></path><path class="cls-14" d="M167.66,284.51a2.65,2.65,0,0,1-2.65-2.65,72.08,72.08,0,0,0-72-72H57.17a2.65,2.65,0,1,1,0-5.3H93a77.39,77.39,0,0,1,77.3,77.3A2.65,2.65,0,0,1,167.66,284.51Z"></path><line class="cls-10" x1="205.8" y1="278.55" x2="302.54" y2="281.86"></line><rect class="cls-10" x="250.57" y="231.81" width="7.19" height="96.79" transform="matrix(0.03, -1, 1, 0.03, -34.57, 524.64)"></rect><line class="cls-10" x1="139.88" y1="137.09" x2="93.01" y2="281.86"></line><rect class="cls-10" x="40.36" y="205.88" width="152.17" height="7.2" transform="translate(-118.71 255.75) rotate(-72.06)"></rect><circle class="cls-15" cx="93.01" cy="281.86" r="7.29" transform="translate(-202.7 307.4) rotate(-76.68)"></circle><path class="cls-10" d="M299.19,283.16C280.13,234.11,245.07,203.3,195,191.61c-37.5-8.76-69.67-3-70-2.89l-1.32-7.07c1.37-.26,34-6.15,72.95,2.95,23,5.36,43.31,14.86,60.46,28.22,21.43,16.71,37.86,39.5,48.83,67.74Z"></path><path class="cls-15" d="M204.6,297.08V260l99.14,14.85v13.9ZM207,262.8v31.67l94.34-7.91v-9.63Z"></path><circle class="cls-15" cx="205.8" cy="278.55" r="18.55" transform="translate(-91.77 101.37) rotate(-22.77)"></circle><circle class="cls-10" cx="205.8" cy="278.55" r="6.96"></circle><circle class="cls-15" cx="302.54" cy="281.86" r="7.29" transform="translate(-41.46 511.29) rotate(-76.68)"></circle><rect class="cls-10" x="119.5" y="131.67" width="28.49" height="7.2"></rect><path class="cls-11" d="M102.88,131.29s-3.18,7.27-2.55,8,1.88-.58,4-3.44,9.33-3.77,9.33-3.77Z"></path><rect class="cls-7" x="101.45" y="131.29" width="18.88" height="7.95" rx="2"></rect><path class="cls-7" d="M120.33,132.73v5.07a1.43,1.43,0,0,1-1.43,1.44h-16a1.43,1.43,0,0,1-1.43-1.44v-5.07a1.42,1.42,0,0,1,1-1.38c-.59,1.21-.41,2.64.53,4.62,1.22,2.54,14.44-3.19,14.44-3.19l2.66-.79A1.39,1.39,0,0,1,120.33,132.73Z"></path><rect class="cls-7" x="146.73" y="131.29" width="14.52" height="7.95" rx="2"></rect><path class="cls-15" d="M243.87,164.35h25.54c8.12,0,16.58-11.22-8.17-11.22-21.7,0-34.73,9.3-34.23,9.14S243.87,164.35,243.87,164.35Z"></path><path class="cls-16" d="M177.26,310.56a1.18,1.18,0,0,1-.82-.32,1.2,1.2,0,0,1-.06-1.69l28.54-30.82a1.2,1.2,0,0,1,1.76,1.63l-28.54,30.82A1.18,1.18,0,0,1,177.26,310.56Z"></path><polygon class="cls-11" points="186.26 277.44 186.05 282.97 185.93 285.99 185.54 296.31 173.67 297.76 173.61 296.31 173.15 285.51 172.96 280.96 172.89 279.43 186.26 277.44"></polygon><polygon class="cls-17" points="172.96 280.96 185.78 281.35 186.05 282.97 185.87 287.6 173.24 287.6 172.96 280.96"></polygon><path class="cls-18" d="M272.05,143.38c-4,21.21-63.87,48.11-68.57,64.05-3.59,12.17-8.58,51-10.75,68.69a9.93,9.93,0,0,1-10.09,8.73l-6.46-.14a10,10,0,0,1-5.54-1.84,9.83,9.83,0,0,1-4.16-7.54,148.66,148.66,0,0,1,.25-16.52c1.36-21.88,6.23-49.43,10.91-63.42,4.39-13.1,24.42-33.56,38.64-46.91,8.35-7.84,14.7-13.22,14.7-13.22l-4-5.46,28.6-21.8.14.13c3.16,2.78,14.49,10.43,16.6,24.38h0A32.62,32.62,0,0,1,272.05,143.38Z"></path><path class="cls-15" d="M154.91,19.48s-8.19-1.21-9.19-8.13C144.23,1,157-1.28,164.09.59c4.57,1.2,11.13,5,12.9,5.25,1.55.22,12,.79,12.58,13,.39,7.8-5.28,20.4-13.1,22.41S154.91,19.48,154.91,19.48Z"></path><path class="cls-11" d="M181.19,37.21a3.56,3.56,0,0,1,.6-4.68,7,7,0,0,0,2.47-4.7c.33-4.51-2.78-4.69-4.11-3.15s-2.8,1.9-3-.27-.47-5-3-4.87-6.33,2.21-10.21-.47-6,2.43-10.87-.31c0,0,.61,17.91,3.95,23.77a9,9,0,0,0,10.79,4.14L177,61.88s2.32,1.83,5.63-1.82S187.25,46,187.25,46Z"></path><path class="cls-9" d="M255.6,108l-2.22,1.69L227,129.8s-38.08-23.19-43.39-35.45a68.63,68.63,0,0,1-3.76-12.42,153.41,153.41,0,0,1-2.85-20s8.27-7.62,10.26-15.9c0,0,16.23,3,34.45,23.52S255.6,108,255.6,108Z"></path><path class="cls-19" d="M253.38,109.69,227,129.8s-38.08-23.19-43.39-35.45a68.63,68.63,0,0,1-3.76-12.42C188.26,99.62,232.41,112.27,253.38,109.69Z"></path><path class="cls-11" d="M185.44,95.68a5.48,5.48,0,0,1-.45.86,19.29,19.29,0,0,1-2.63,3.34c-5.3,5.62-15.2,12.52-18.1,15.23-6.6,6.16-17.79,9-27.86,12-6.55,2-17,4.19-17.5,4.19h-16a26.34,26.34,0,0,1,8-5.13c33.73-14.06,34.07-13,39.05-17.67C159,100,165.18,93.37,168.49,89.68c1.91-2.12,2.86-3.28,2.86-3.28A53.47,53.47,0,0,1,176.9,88C181.46,89.53,186.94,92.2,185.44,95.68Z"></path><path class="cls-17" d="M185,96.54a19.29,19.29,0,0,1-2.63,3.34l-13.87-10.2c1.91-2.12,2.86-3.28,2.86-3.28A53.47,53.47,0,0,1,176.9,88Z"></path><path class="cls-9" d="M168.64,87.89s12.87-22.69,17.73-28.43,16.92-5.19,17,6.4c.08,10.93-19.7,33.3-19.7,33.3Z"></path><path class="cls-17" d="M167.77,46.67s6.44-2.75,9.49-8.73c0,0-1.95,8.09-7.67,11.73Z"></path><path class="cls-11" d="M152.54,129.8s-5.2,3.27-4.92,4.61c.37,1.74,8.06-3.12,8.06-3.12Z"></path><rect class="cls-10" x="166.07" y="309.36" width="19.9" height="3.7"></rect><path class="cls-20" d="M255.6,108a1.59,1.59,0,0,1,.13.13C244.57,115.8,231,135.26,231,135.26l-4-5.46Z"></path><path class="cls-21" d="M261,105.41c-.13.11-1.45.71-3.62,1.69a18.82,18.82,0,0,1,2.45-1.24A9.76,9.76,0,0,1,261,105.41Z"></path><path class="cls-22" d="M209.33,167.29c-20.57,15.5-37,35.25-41.56,85a41.67,41.67,0,0,1-1,6.52c1.36-21.88,6.23-49.43,10.91-63.42,4.39-13.1,24.42-33.56,38.64-46.91h0C233.76,139.29,229.9,151.79,209.33,167.29Z"></path><path class="cls-15" d="M155.05,308.34c.29,1.13,1.1,2.11,7.48,1.57a125.37,125.37,0,0,1,14.94-.71c3.75.16,10.44.92,10.72-3.78S155.05,308.34,155.05,308.34Z"></path><path class="cls-9" d="M185.7,307.69c-2,.76-5,1.07-9.32.86-4.86-.25-10,.42-14.07.71-3.53.25-6.25.23-7.26-.92-1.16-1.33,4.58-4,9.34-6.5,4.08-2.17,8.38-4.08,9.18-6.4,1.73-5,6.57,2.57,8.4,1s2.47-4.36,3.73-4.37c0,0,1.44,8,2.44,11.49C188.67,305.44,187.89,306.85,185.7,307.69Z"></path><path class="cls-23" d="M185.7,307.69c-2,.76-5,1.07-9.32.86-4.86-.25-10,.42-14.07.71,3.59-.8,7.83-4.32,16.16-2.29A19.11,19.11,0,0,0,185.7,307.69Z"></path></g></g></g></svg>