<svg xmlns="http://www.w3.org/2000/svg" xmlns:xlink="http://www.w3.org/1999/xlink" viewBox="0 0 433.53 378.78"><defs><style>.cls-1,.cls-5{fill:none;}.cls-2{isolation:isolate;}.cls-3{fill:#eafaf7;}.cls-4{fill:url(#linear-gradient);}.cls-5{stroke:#fff;stroke-miterlimit:10;}.cls-5,.cls-8{opacity:0.58;}.cls-6{fill:#3cb5ac;}.cls-7{fill:url(#linear-gradient-2);}.cls-9{fill:#fff;}.cls-10,.cls-15,.cls-241,.cls-247{mix-blend-mode:multiply;}.cls-10{opacity:0.16;}.cls-11{fill:#74869a;}.cls-12{fill:url(#linear-gradient-3);}.cls-13{fill:url(#linear-gradient-4);}.cls-14{fill:#ffcaa6;}.cls-15,.cls-247{opacity:0.15;}.cls-16{clip-path:url(#clip-path);}.cls-17{fill:#fefefe;}.cls-18{fill:#fdfdfd;}.cls-19{fill:#fcfcfc;}.cls-20{fill:#fbfbfb;}.cls-21{fill:#fafafa;}.cls-22{fill:#f9f9f9;}.cls-23{fill:#f8f8f8;}.cls-24{fill:#f7f7f7;}.cls-25{fill:#f6f6f6;}.cls-26{fill:#f5f5f5;}.cls-27{fill:#f4f4f4;}.cls-28{fill:#f3f3f3;}.cls-29{fill:#f2f2f2;}.cls-30{fill:#f1f1f1;}.cls-31{fill:#f0f0f0;}.cls-32{fill:#efefef;}.cls-33{fill:#eee;}.cls-34{fill:#ededed;}.cls-35{fill:#ececec;}.cls-36{fill:#ebebeb;}.cls-37{fill:#eaeaea;}.cls-38{fill:#e9e9e9;}.cls-39{fill:#e8e8e8;}.cls-40{fill:#e7e7e7;}.cls-41{fill:#e6e6e6;}.cls-42{fill:#e5e5e5;}.cls-43{fill:#e4e4e4;}.cls-44{fill:#e3e3e3;}.cls-45{fill:#e2e2e2;}.cls-46{fill:#e1e1e1;}.cls-47{fill:#e0e0e0;}.cls-48{fill:#dfdfdf;}.cls-49{fill:#dedede;}.cls-50{fill:#ddd;}.cls-51{fill:#dcdcdc;}.cls-52{fill:#dbdbdb;}.cls-53{fill:#dadada;}.cls-54{fill:#dad9d9;}.cls-55{fill:#d9d8d8;}.cls-56{fill:#d8d7d7;}.cls-57{fill:#d7d6d6;}.cls-58{fill:#d6d5d5;}.cls-59{fill:#d5d4d4;}.cls-60{fill:#d4d3d3;}.cls-61{fill:#d3d2d2;}.cls-62{fill:#d2d1d1;}.cls-63{fill:#d1d0d0;}.cls-64{fill:#d0cfcf;}.cls-65{fill:#cfcece;}.cls-66{fill:#cecdcd;}.cls-67{fill:#cdcccc;}.cls-68{fill:#cccbcb;}.cls-69{fill:#cbcaca;}.cls-70{fill:#cac9c9;}.cls-71{fill:#c9c8c8;}.cls-72{fill:#c8c7c7;}.cls-73{fill:#c7c6c6;}.cls-74{fill:#c6c5c5;}.cls-75{fill:#c5c4c4;}.cls-76{fill:#c4c3c3;}.cls-77{fill:#c3c2c2;}.cls-78{fill:#c2c1c1;}.cls-79{fill:#c1c0c0;}.cls-80{fill:#c0bfbf;}.cls-81{fill:#bfbebe;}.cls-82{fill:#bebdbd;}.cls-83{fill:#bdbcbc;}.cls-84{fill:#bcbbbb;}.cls-85{fill:#bbbaba;}.cls-86{fill:#bab9b9;}.cls-87{fill:#b9b8b8;}.cls-88{fill:#b8b7b7;}.cls-89{fill:#b7b6b6;}.cls-90{fill:#b6b5b5;}.cls-91{fill:#b5b4b4;}.cls-92{fill:#b4b3b3;}.cls-93{fill:#b3b2b2;}.cls-94{fill:#b2b1b1;}.cls-95{fill:#b1b0b0;}.cls-96{fill:#b0afaf;}.cls-97{fill:#afaeae;}.cls-98{fill:#aeadad;}.cls-99{fill:#adacac;}.cls-100{fill:#acabab;}.cls-101{fill:#abaaaa;}.cls-102{fill:#aaa9a9;}.cls-103{fill:#a9a8a8;}.cls-104{fill:#a8a7a7;}.cls-105{fill:#a7a6a6;}.cls-106{fill:#a6a5a5;}.cls-107{fill:#a5a4a4;}.cls-108{fill:#a4a3a3;}.cls-109{fill:#a3a2a2;}.cls-110{fill:#a2a1a1;}.cls-111{fill:#a1a0a0;}.cls-112{fill:#a09f9f;}.cls-113{fill:#9f9e9e;}.cls-114{fill:#9e9d9d;}.cls-115{fill:#9d9c9c;}.cls-116{fill:#9c9b9b;}.cls-117{fill:#9b9a9a;}.cls-118{fill:#9a9999;}.cls-119{fill:#999898;}.cls-120{fill:#989797;}.cls-121{fill:#979696;}.cls-122{fill:#969595;}.cls-123{fill:#959494;}.cls-124{fill:#949393;}.cls-125{fill:#939292;}.cls-126{fill:#929191;}.cls-127{fill:#919090;}.cls-128{fill:#918e8f;}.cls-129{fill:#908d8e;}.cls-130{fill:#8f8c8d;}.cls-131{fill:#8e8b8c;}.cls-132{fill:#8d8a8b;}.cls-133{fill:#8c898a;}.cls-134{fill:#8b8889;}.cls-135{fill:#8a8788;}.cls-136{fill:#898687;}.cls-137{fill:#888586;}.cls-138{fill:#878485;}.cls-139{fill:#868384;}.cls-140{fill:#858283;}.cls-141{fill:#848182;}.cls-142{fill:#838081;}.cls-143{fill:#827f80;}.cls-144{fill:#817e7f;}.cls-145{fill:#807d7e;}.cls-146{fill:#7f7c7d;}.cls-147{fill:#7e7b7c;}.cls-148{fill:#7d7a7b;}.cls-149{fill:#7c797a;}.cls-150{fill:#7b7879;}.cls-151{fill:#7a7778;}.cls-152{fill:#797677;}.cls-153{fill:#787576;}.cls-154{fill:#777475;}.cls-155{fill:#767374;}.cls-156{fill:#757273;}.cls-157{fill:#747172;}.cls-158{fill:#737071;}.cls-159{fill:#726f70;}.cls-160{fill:#716e6f;}.cls-161{fill:#706d6e;}.cls-162{fill:#6f6c6d;}.cls-163{fill:#6e6b6c;}.cls-164{fill:#6d6a6b;}.cls-165{fill:#6c696a;}.cls-166{fill:#6b6869;}.cls-167{fill:#6a6768;}.cls-168{fill:#696667;}.cls-169{fill:#686566;}.cls-170{fill:#676465;}.cls-171{fill:#666364;}.cls-172{fill:#656263;}.cls-173{fill:#646162;}.cls-174{fill:#636061;}.cls-175{fill:#625f60;}.cls-176{fill:#615e5f;}.cls-177{fill:#605d5e;}.cls-178{fill:#5f5c5d;}.cls-179{fill:#5e5b5c;}.cls-180{fill:#5d5a5b;}.cls-181{fill:#5c595a;}.cls-182{fill:#5b5859;}.cls-183{fill:#5a5758;}.cls-184{fill:#595657;}.cls-185{fill:#585556;}.cls-186{fill:#575455;}.cls-187{fill:#565354;}.cls-188{fill:#555253;}.cls-189{fill:#545152;}.cls-190{fill:#535051;}.cls-191{fill:#524f50;}.cls-192{fill:#514e4f;}.cls-193{fill:#504d4e;}.cls-194{fill:#4f4c4d;}.cls-195{fill:#4e4b4c;}.cls-196{fill:#4d4a4b;}.cls-197{fill:#4c494a;}.cls-198{fill:#4b4849;}.cls-199{fill:#4a4748;}.cls-200{fill:#494647;}.cls-201{fill:#484546;}.cls-202{fill:#484445;}.cls-203{fill:#474344;}.cls-204{fill:#464243;}.cls-205{fill:#454142;}.cls-206{fill:#444041;}.cls-207{fill:#433f40;}.cls-208{fill:#423e3f;}.cls-209{fill:#413d3e;}.cls-210{fill:#403c3d;}.cls-211{fill:#3f3b3c;}.cls-212{fill:#3e3a3b;}.cls-213{fill:#3d393a;}.cls-214{fill:#3c3839;}.cls-215{fill:#3b3738;}.cls-216{fill:#3a3637;}.cls-217{fill:#393536;}.cls-218{fill:#383435;}.cls-219{fill:#373334;}.cls-220{fill:#363233;}.cls-221{fill:#353132;}.cls-222{fill:#343031;}.cls-223{fill:#332f30;}.cls-224{fill:#322e2f;}.cls-225{fill:#312d2e;}.cls-226{fill:#302c2d;}.cls-227{fill:#2f2b2c;}.cls-228{fill:#2e2a2b;}.cls-229{fill:#2d292a;}.cls-230{fill:#2c2829;}.cls-231{fill:#2b2728;}.cls-232{fill:#2a2627;}.cls-233{fill:#292526;}.cls-234{fill:#282425;}.cls-235{fill:#272324;}.cls-236{fill:#262223;}.cls-237{fill:#252122;}.cls-238{fill:#242021;}.cls-239{fill:#231f20;}.cls-240{fill:#fdbc46;}.cls-241{opacity:0.12;}.cls-242{clip-path:url(#clip-path-2);}.cls-243{fill:#ffdca4;}.cls-244{clip-path:url(#clip-path-3);}.cls-245{fill:#edbc9a;}.cls-246{fill:#2a3e59;}.cls-247{fill:url(#White_Black_2);}</style><linearGradient id="linear-gradient" x1="208.78" y1="-101.92" x2="168.55" y2="-5.78" gradientTransform="translate(131.54 162.27) rotate(13.42)" gradientUnits="userSpaceOnUse"><stop offset="0" stop-color="#a7ded6"></stop><stop offset="1" stop-color="#3cb5ac"></stop></linearGradient><linearGradient id="linear-gradient-2" x1="-1173.8" y1="-256.57" x2="-1087.57" y2="-126.54" gradientTransform="matrix(-0.83, -0.56, -0.56, 0.83, -769.2, -220.37)" xlink:href="#linear-gradient"></linearGradient><linearGradient id="linear-gradient-3" x1="39.33" y1="202.04" x2="151.45" y2="195.73" gradientTransform="translate(114.83 22.81) rotate(16.27)" xlink:href="#linear-gradient"></linearGradient><linearGradient id="linear-gradient-4" x1="86.05" y1="129.66" x2="191.05" y2="240.66" gradientTransform="matrix(1, 0, 0, 1, 0, 0)" xlink:href="#linear-gradient"></linearGradient><clipPath id="clip-path"><path class="cls-1" d="M263.54,230.37l-37.39,8.54-46.94-10.67s10.23-20.68,9.27-43.4c12.8,17.55,35,33,70.08,25.07A127,127,0,0,0,263.54,230.37Z"></path></clipPath><clipPath id="clip-path-2"><path class="cls-1" d="M196.12,296.67c-7.08,2.07-13.71,2.75-15.39,8.84s2.06,11.78-3,19.21c-6.71,9.75-6.86,26.06-5.18,27.28s15.24-19.35,20.88-26.67,23.93-19.51,23.93-19.51l-7.93-15.55S200.83,295.3,196.12,296.67Z"></path></clipPath><clipPath id="clip-path-3"><path class="cls-1" d="M207.66,290.42s19.91-14.22,52-39,43.9-42.27,64.63-42.67S352,241.24,297.48,266s-80.07,42.68-80.07,42.68Z"></path></clipPath><linearGradient id="White_Black_2" x1="184.85" y1="264.36" x2="231.85" y2="390.02" gradientUnits="userSpaceOnUse"><stop offset="0" stop-color="#fff"></stop><stop offset="1" stop-color="#231f20"></stop></linearGradient></defs><g class="cls-2"><g id="Layer_2" data-name="Layer 2"><g id="Layer_2-2" data-name="Layer 2"><path class="cls-3" d="M13.89,248.48c45.38,52.69,9.21,96.06,71.63,123.93,20.21,9,79.39-14.06,113.93-6.66C419.88,413,353.13,319.66,402.58,278.27c57.7-48.29,32.58-133.63-57.41-163.8C264.27,87.36,312.6,10.32,212.14.23,155.2-5.48,133.36,96,94.16,108.36-6.41,140.15-13.76,216.38,13.89,248.48Z"></path><path class="cls-4" d="M350.06,144.2c3.45,3.48,1.44,15.35-14.15,29.17s3.45,15.1-6,29.52-37.19,13.84-32.73,22.42-37.84,18.36-56.26,14.34,43-80.53,52.58-76.27-.25,14,21.57-1.48S345.17,139.27,350.06,144.2Z"></path><path class="cls-5" d="M336.33,158s-67.53,66.26-94.49,78.24"></path><path class="cls-5" d="M319.58,198.88s-17.59,3.8-30,2.5"></path><path class="cls-5" d="M264.1,196.41s-6.29,13-4.26,27"></path><path class="cls-6" d="M301.85,226.53l-.82-1c26.78-21.83,57.32-25.83,57.62-25.87l.16,1.28C358.51,201,328.33,205,301.85,226.53Z"></path><path class="cls-6" d="M357.43,200.51s8.85-7,12.49-6.82S372.32,200,357.43,200.51Z"></path><path class="cls-6" d="M343.22,204.48s11.26-.67,14.14,1.55S355.7,212.61,343.22,204.48Z"></path><path class="cls-6" d="M343,203.94s8.47-7.46,8.94-11.06S346.13,189.37,343,203.94Z"></path><path class="cls-6" d="M329.65,208.79s8-7.93,8.3-11.56S332,194.07,329.65,208.79Z"></path><path class="cls-6" d="M312.51,218s7.46-8.46,7.48-12.1S313.78,203.11,312.51,218Z"></path><path class="cls-6" d="M329.63,209.44s11.27.52,13.9,3S341.19,218.84,329.63,209.44Z"></path><path class="cls-6" d="M313.13,217.83s11.27.52,13.9,3S324.69,227.23,313.13,217.83Z"></path><path class="cls-7" d="M395.72,210c2,5-5.09,16.33-27,23.81s-2.93,16.94-18.82,27.64-44-1.75-43.11,8.95-48-4.44-65.11-16.44,79.84-57,87.85-48.56-6.26,14.25,22.72,7.72S392.83,202.9,395.72,210Z"></path><path class="cls-5" d="M370,217.47s-70,33.19-143.24,26.36"></path><path class="cls-5" d="M343.19,252.94s-16.62-7.68-29.24-16.63"></path><path class="cls-5" d="M300.36,266.69s-21.3-10.16-31-22.51"></path><g class="cls-8"><path class="cls-9" d="M151.57,220.82a118,118,0,0,1-16.34-1.17l.19-1.21c.2,0,20.61,3.11,33.53-1l.37,1.16C164,220.31,157.45,220.82,151.57,220.82Z"></path></g><g class="cls-8"><path class="cls-9" d="M111.38,253.76l-.51-1.1c.18-.08,17.66-8.16,30.75-9.59l.14,1.21C128.86,245.69,111.56,253.68,111.38,253.76Z"></path></g><g class="cls-8"><path class="cls-9" d="M194,274.87c-44.54-50.4-117.37-29.22-118.1-29l-.35-1.17A146.09,146.09,0,0,1,118.12,240c22,.82,53.24,7.38,76.8,34Z"></path></g><g class="cls-8"><path class="cls-9" d="M176,250.8c-8.4-15.47-27.68-30.56-27.87-30.71l.75-1c.19.15,19.67,15.39,28.19,31.09Z"></path></g><g class="cls-10"><ellipse class="cls-11" cx="224.32" cy="318.37" rx="87.1" ry="11.97"></ellipse></g><path class="cls-12" d="M197,259.21c-5.35-13.35-38.89-64.73-52.33-51.08-5.88,6-44.72-9.54-60.71-.21s-5.55,12.68-5.55,12.68-48.23,13.07-39.72,25.12,48.37-.38,63,13.45,37.93,9.52,59.29,9.28,34.41,7.88,35.11,6.54S197,259.21,197,259.21Z"></path><path class="cls-5" d="M102.79,246.9s18.59-8.64,32.61-10.18"></path><path class="cls-5" d="M65,238.44s78.32-23.58,126.68,31.15"></path><path class="cls-5" d="M147.69,223.36s20.78,16.15,29.91,33"></path><path class="cls-6" d="M133.75,215.36l.76-1.05c-27.9-20.37-58.6-22.76-58.91-22.78l-.09,1.28C75.81,192.83,106.16,195.2,133.75,215.36Z"></path><path class="cls-6" d="M76.87,192.31s-9.21-6.52-12.83-6.15S62,192.62,76.87,192.31Z"></path><path class="cls-6" d="M91.27,195.52s-11.29-.08-14,2.3S79.23,204.3,91.27,195.52Z"></path><path class="cls-6" d="M91.46,195s-8.85-7-9.52-10.57S87.56,180.59,91.46,195Z"></path><path class="cls-6" d="M105,199.11s-8.43-7.49-8.89-11.1S102,184.53,105,199.11Z"></path><path class="cls-6" d="M122.65,207.36s-7.9-8.06-8.11-11.7S120.59,192.6,122.65,207.36Z"></path><path class="cls-6" d="M105.1,199.76s-11.23,1.11-13.72,3.77S94.05,209.76,105.1,199.76Z"></path><path class="cls-6" d="M122,207.27s-11.23,1.11-13.72,3.76S111,217.27,122,207.27Z"></path><path class="cls-13" d="M100.27,143c-3.82,3.38-2.53,15.83,12.71,31.23s-4.61,15.44,4.27,31,37.65,16.88,32.44,25.49,38,21.6,57.41,18.68S168,162.92,157.71,166.68s-.69,14.57-22.29-3S105.67,138.17,100.27,143Z"></path><path class="cls-5" d="M119.28,161.24S145.81,201.5,208.67,242"></path><path class="cls-5" d="M130.78,201.62s17.83,4.06,32.64,6.63"></path><path class="cls-5" d="M161.47,232a161.6,161.6,0,0,0,29.22-2.25"></path><path class="cls-14" d="M401.34,94.31c-2.65.2-6.51,7.52-13.62,8.74-.73.12-1.47.27-2.2.43,2.24-1.33,4.57-2.75,3.77-3.28s-8,1.46-10.11,3c-1.68,1.28-3.39,2.73-4.65,3.81a36,36,0,0,0-5.1,2.69l6.3,5.9s12-5.49,15.24-7.32S404,94.11,401.34,94.31Z"></path><path class="cls-14" d="M40.06,94.31c2.64.2,6.5,7.52,13.61,8.74.73.12,1.47.27,2.2.43-2.24-1.33-4.57-2.75-3.77-3.28s8,1.46,10.11,3c1.68,1.28,3.39,2.73,4.65,3.81a36,36,0,0,1,5.1,2.69l-6.3,5.9s-12-5.49-15.24-7.32S37.41,94.11,40.06,94.31Z"></path><path class="cls-11" d="M378.57,117S335.9,152,323.4,151.72c-9.71-.23-42.78-14.64-57.06-21.06-2.5,19.45-6.19,44-8.18,55.51-1.33,7.72-.76,16.25.4,23.74a127,127,0,0,0,5,20.46l-37.39,8.54-46.94-10.67s10.23-20.68,9.27-43.4A61.53,61.53,0,0,0,187.13,174c-2.84-13-7.75-29.65-10.79-44-13.21,6-48.58,21.55-58.68,21.79C105.16,152,62.49,117,62.49,117l7-9.76s44.81,25,50.91,22.56c5.48-2.19,47.3-25.24,55.65-29.85l1.45-.8c7.89-4.87,29.44-9.66,42.24-9.59,7.17,0,32.62,4.5,43.79,9.66v-.07l1.12.61c.44.23.85.45,1.23.68,10,5.55,49.28,27.14,54.73,29.35h0c6.1,2.44,50.91-22.56,50.91-22.56Z"></path><g class="cls-15"><g class="cls-16"><path class="cls-9" d="M179.21,184.84v0Z"></path><rect class="cls-9" x="179.21" y="184.84" width="0.38" height="54.07"></rect><rect class="cls-17" x="179.58" y="184.84" width="0.38" height="54.07"></rect><rect class="cls-18" x="179.96" y="184.84" width="0.38" height="54.07"></rect><rect class="cls-19" x="180.33" y="184.84" width="0.38" height="54.07"></rect><rect class="cls-20" x="180.71" y="184.84" width="0.38" height="54.07"></rect><rect class="cls-21" x="181.09" y="184.84" width="0.38" height="54.07"></rect><rect class="cls-22" x="181.46" y="184.84" width="0.38" height="54.07"></rect><rect class="cls-23" x="181.84" y="184.84" width="0.38" height="54.07"></rect><rect class="cls-24" x="182.22" y="184.84" width="0.38" height="54.07"></rect><rect class="cls-25" x="182.59" y="184.84" width="0.38" height="54.07"></rect><rect class="cls-26" x="182.97" y="184.84" width="0.38" height="54.07"></rect><rect class="cls-27" x="183.35" y="184.84" width="0.38" height="54.07"></rect><rect class="cls-28" x="183.72" y="184.84" width="0.38" height="54.07"></rect><rect class="cls-29" x="184.1" y="184.84" width="0.38" height="54.07"></rect><rect class="cls-30" x="184.48" y="184.84" width="0.38" height="54.07"></rect><rect class="cls-31" x="184.85" y="184.84" width="0.38" height="54.07"></rect><rect class="cls-32" x="185.23" y="184.84" width="0.38" height="54.07"></rect><rect class="cls-33" x="185.61" y="184.84" width="0.38" height="54.07"></rect><rect class="cls-34" x="185.98" y="184.84" width="0.38" height="54.07"></rect><rect class="cls-35" x="186.36" y="184.84" width="0.38" height="54.07"></rect><rect class="cls-36" x="186.73" y="184.84" width="0.38" height="54.07"></rect><rect class="cls-37" x="187.11" y="184.84" width="0.38" height="54.07"></rect><rect class="cls-38" x="187.49" y="184.84" width="0.38" height="54.07"></rect><rect class="cls-39" x="187.86" y="184.84" width="0.38" height="54.07"></rect><rect class="cls-40" x="188.24" y="184.84" width="0.38" height="54.07"></rect><rect class="cls-41" x="188.62" y="184.84" width="0.38" height="54.07"></rect><rect class="cls-42" x="188.99" y="184.84" width="0.38" height="54.07"></rect><rect class="cls-43" x="189.37" y="184.84" width="0.38" height="54.07"></rect><rect class="cls-44" x="189.75" y="184.84" width="0.38" height="54.07"></rect><rect class="cls-45" x="190.12" y="184.84" width="0.38" height="54.07"></rect><rect class="cls-46" x="190.5" y="184.84" width="0.38" height="54.07"></rect><rect class="cls-47" x="190.88" y="184.84" width="0.38" height="54.07"></rect><rect class="cls-48" x="191.25" y="184.84" width="0.38" height="54.07"></rect><rect class="cls-49" x="191.63" y="184.84" width="0.38" height="54.07"></rect><rect class="cls-50" x="192.01" y="184.84" width="0.38" height="54.07"></rect><rect class="cls-51" x="192.38" y="184.84" width="0.38" height="54.07"></rect><rect class="cls-52" x="192.76" y="184.84" width="0.38" height="54.07"></rect><rect class="cls-53" x="193.14" y="184.84" width="0.38" height="54.07"></rect><rect class="cls-54" x="193.51" y="184.84" width="0.38" height="54.07"></rect><rect class="cls-55" x="193.89" y="184.84" width="0.38" height="54.07"></rect><rect class="cls-56" x="194.26" y="184.84" width="0.38" height="54.07"></rect><rect class="cls-57" x="194.64" y="184.84" width="0.38" height="54.07"></rect><rect class="cls-58" x="195.02" y="184.84" width="0.38" height="54.07"></rect><rect class="cls-59" x="195.39" y="184.84" width="0.38" height="54.07"></rect><rect class="cls-60" x="195.77" y="184.84" width="0.38" height="54.07"></rect><rect class="cls-61" x="196.15" y="184.84" width="0.38" height="54.07"></rect><rect class="cls-62" x="196.52" y="184.84" width="0.38" height="54.07"></rect><rect class="cls-63" x="196.9" y="184.84" width="0.38" height="54.07"></rect><rect class="cls-64" x="197.28" y="184.84" width="0.38" height="54.07"></rect><rect class="cls-65" x="197.65" y="184.84" width="0.38" height="54.07"></rect><rect class="cls-66" x="198.03" y="184.84" width="0.38" height="54.07"></rect><rect class="cls-67" x="198.41" y="184.84" width="0.38" height="54.07"></rect><rect class="cls-68" x="198.78" y="184.84" width="0.38" height="54.07"></rect><rect class="cls-69" x="199.16" y="184.84" width="0.38" height="54.07"></rect><rect class="cls-70" x="199.54" y="184.84" width="0.38" height="54.07"></rect><rect class="cls-71" x="199.91" y="184.84" width="0.38" height="54.07"></rect><rect class="cls-72" x="200.29" y="184.84" width="0.38" height="54.07"></rect><rect class="cls-73" x="200.66" y="184.84" width="0.38" height="54.07"></rect><rect class="cls-74" x="201.04" y="184.84" width="0.38" height="54.07"></rect><rect class="cls-75" x="201.42" y="184.84" width="0.38" height="54.07"></rect><rect class="cls-76" x="201.79" y="184.84" width="0.38" height="54.07"></rect><rect class="cls-77" x="202.17" y="184.84" width="0.38" height="54.07"></rect><rect class="cls-78" x="202.55" y="184.84" width="0.38" height="54.07"></rect><rect class="cls-79" x="202.92" y="184.84" width="0.38" height="54.07"></rect><rect class="cls-80" x="203.3" y="184.84" width="0.38" height="54.07"></rect><rect class="cls-81" x="203.68" y="184.84" width="0.38" height="54.07"></rect><rect class="cls-82" x="204.05" y="184.84" width="0.38" height="54.07"></rect><rect class="cls-83" x="204.43" y="184.84" width="0.38" height="54.07"></rect><rect class="cls-84" x="204.81" y="184.84" width="0.38" height="54.07"></rect><rect class="cls-85" x="205.18" y="184.84" width="0.38" height="54.07"></rect><rect class="cls-86" x="205.56" y="184.84" width="0.38" height="54.07"></rect><rect class="cls-87" x="205.94" y="184.84" width="0.38" height="54.07"></rect><rect class="cls-88" x="206.31" y="184.84" width="0.38" height="54.07"></rect><rect class="cls-89" x="206.69" y="184.84" width="0.38" height="54.07"></rect><rect class="cls-90" x="207.06" y="184.84" width="0.38" height="54.07"></rect><rect class="cls-91" x="207.44" y="184.84" width="0.38" height="54.07"></rect><rect class="cls-92" x="207.82" y="184.84" width="0.38" height="54.07"></rect><rect class="cls-93" x="208.19" y="184.84" width="0.38" height="54.07"></rect><rect class="cls-94" x="208.57" y="184.84" width="0.38" height="54.07"></rect><rect class="cls-95" x="208.95" y="184.84" width="0.38" height="54.07"></rect><rect class="cls-96" x="209.32" y="184.84" width="0.38" height="54.07"></rect><rect class="cls-97" x="209.7" y="184.84" width="0.38" height="54.07"></rect><rect class="cls-98" x="210.08" y="184.84" width="0.38" height="54.07"></rect><rect class="cls-99" x="210.45" y="184.84" width="0.38" height="54.07"></rect><rect class="cls-100" x="210.83" y="184.84" width="0.38" height="54.07"></rect><rect class="cls-101" x="211.21" y="184.84" width="0.38" height="54.07"></rect><rect class="cls-102" x="211.58" y="184.84" width="0.38" height="54.07"></rect><rect class="cls-103" x="211.96" y="184.84" width="0.38" height="54.07"></rect><rect class="cls-104" x="212.34" y="184.84" width="0.38" height="54.07"></rect><rect class="cls-105" x="212.71" y="184.84" width="0.38" height="54.07"></rect><rect class="cls-106" x="213.09" y="184.84" width="0.38" height="54.07"></rect><rect class="cls-107" x="213.47" y="184.84" width="0.38" height="54.07"></rect><rect class="cls-108" x="213.84" y="184.84" width="0.38" height="54.07"></rect><rect class="cls-109" x="214.22" y="184.84" width="0.38" height="54.07"></rect><rect class="cls-110" x="214.59" y="184.84" width="0.38" height="54.07"></rect><rect class="cls-111" x="214.97" y="184.84" width="0.38" height="54.07"></rect><rect class="cls-112" x="215.35" y="184.84" width="0.38" height="54.07"></rect><rect class="cls-113" x="215.72" y="184.84" width="0.38" height="54.07"></rect><rect class="cls-114" x="216.1" y="184.84" width="0.38" height="54.07"></rect><rect class="cls-115" x="216.48" y="184.84" width="0.38" height="54.07"></rect><rect class="cls-116" x="216.85" y="184.84" width="0.38" height="54.07"></rect><rect class="cls-117" x="217.23" y="184.84" width="0.38" height="54.07"></rect><rect class="cls-118" x="217.61" y="184.84" width="0.38" height="54.07"></rect><rect class="cls-119" x="217.98" y="184.84" width="0.38" height="54.07"></rect><rect class="cls-120" x="218.36" y="184.84" width="0.38" height="54.07"></rect><rect class="cls-121" x="218.74" y="184.84" width="0.38" height="54.07"></rect><rect class="cls-122" x="219.11" y="184.84" width="0.38" height="54.07"></rect><rect class="cls-123" x="219.49" y="184.84" width="0.38" height="54.07"></rect><rect class="cls-124" x="219.87" y="184.84" width="0.38" height="54.07"></rect><rect class="cls-125" x="220.24" y="184.84" width="0.38" height="54.07"></rect><rect class="cls-126" x="220.62" y="184.84" width="0.38" height="54.07"></rect><rect class="cls-127" x="220.99" y="184.84" width="0.38" height="54.07"></rect><rect class="cls-128" x="221.37" y="184.84" width="0.38" height="54.07"></rect><rect class="cls-129" x="221.75" y="184.84" width="0.38" height="54.07"></rect><rect class="cls-130" x="222.12" y="184.84" width="0.38" height="54.07"></rect><rect class="cls-131" x="222.5" y="184.84" width="0.38" height="54.07"></rect><rect class="cls-132" x="222.88" y="184.84" width="0.38" height="54.07"></rect><rect class="cls-133" x="223.25" y="184.84" width="0.38" height="54.07"></rect><rect class="cls-134" x="223.63" y="184.84" width="0.38" height="54.07"></rect><rect class="cls-135" x="224.01" y="184.84" width="0.38" height="54.07"></rect><rect class="cls-136" x="224.38" y="184.84" width="0.38" height="54.07"></rect><rect class="cls-137" x="224.76" y="184.84" width="0.38" height="54.07"></rect><rect class="cls-138" x="225.14" y="184.84" width="0.38" height="54.07"></rect><rect class="cls-139" x="225.51" y="184.84" width="0.38" height="54.07"></rect><rect class="cls-140" x="225.89" y="184.84" width="0.38" height="54.07"></rect><rect class="cls-141" x="226.27" y="184.84" width="0.38" height="54.07"></rect><rect class="cls-142" x="226.64" y="184.84" width="0.38" height="54.07"></rect><rect class="cls-143" x="227.02" y="184.84" width="0.38" height="54.07"></rect><rect class="cls-144" x="227.39" y="184.84" width="0.38" height="54.07"></rect><rect class="cls-145" x="227.77" y="184.84" width="0.38" height="54.07"></rect><rect class="cls-146" x="228.15" y="184.84" width="0.38" height="54.07"></rect><rect class="cls-147" x="228.52" y="184.84" width="0.38" height="54.07"></rect><rect class="cls-148" x="228.9" y="184.84" width="0.38" height="54.07"></rect><rect class="cls-149" x="229.28" y="184.84" width="0.38" height="54.07"></rect><rect class="cls-150" x="229.65" y="184.84" width="0.38" height="54.07"></rect><rect class="cls-151" x="230.03" y="184.84" width="0.38" height="54.07"></rect><rect class="cls-152" x="230.41" y="184.84" width="0.38" height="54.07"></rect><rect class="cls-153" x="230.78" y="184.84" width="0.38" height="54.07"></rect><rect class="cls-154" x="231.16" y="184.84" width="0.38" height="54.07"></rect><rect class="cls-155" x="231.54" y="184.84" width="0.38" height="54.07"></rect><rect class="cls-156" x="231.91" y="184.84" width="0.38" height="54.07"></rect><rect class="cls-157" x="232.29" y="184.84" width="0.38" height="54.07"></rect><rect class="cls-158" x="232.67" y="184.84" width="0.38" height="54.07"></rect><rect class="cls-159" x="233.04" y="184.84" width="0.38" height="54.07"></rect><rect class="cls-160" x="233.42" y="184.84" width="0.38" height="54.07"></rect><rect class="cls-161" x="233.8" y="184.84" width="0.38" height="54.07"></rect><rect class="cls-162" x="234.17" y="184.84" width="0.38" height="54.07"></rect><rect class="cls-163" x="234.55" y="184.84" width="0.38" height="54.07"></rect><rect class="cls-164" x="234.92" y="184.84" width="0.38" height="54.07"></rect><rect class="cls-165" x="235.3" y="184.84" width="0.38" height="54.07"></rect><rect class="cls-166" x="235.68" y="184.84" width="0.38" height="54.07"></rect><rect class="cls-167" x="236.05" y="184.84" width="0.38" height="54.07"></rect><rect class="cls-168" x="236.43" y="184.84" width="0.38" height="54.07"></rect><rect class="cls-169" x="236.81" y="184.84" width="0.38" height="54.07"></rect><rect class="cls-170" x="237.18" y="184.84" width="0.38" height="54.07"></rect><rect class="cls-171" x="237.56" y="184.84" width="0.38" height="54.07"></rect><rect class="cls-172" x="237.94" y="184.84" width="0.38" height="54.07"></rect><rect class="cls-173" x="238.31" y="184.84" width="0.38" height="54.07"></rect><rect class="cls-174" x="238.69" y="184.84" width="0.38" height="54.07"></rect><rect class="cls-175" x="239.07" y="184.84" width="0.38" height="54.07"></rect><rect class="cls-176" x="239.44" y="184.84" width="0.38" height="54.07"></rect><rect class="cls-177" x="239.82" y="184.84" width="0.38" height="54.07"></rect><rect class="cls-178" x="240.2" y="184.84" width="0.38" height="54.07"></rect><rect class="cls-179" x="240.57" y="184.84" width="0.38" height="54.07"></rect><rect class="cls-180" x="240.95" y="184.84" width="0.38" height="54.07"></rect><rect class="cls-181" x="241.32" y="184.84" width="0.38" height="54.07"></rect><rect class="cls-182" x="241.7" y="184.84" width="0.38" height="54.07"></rect><rect class="cls-183" x="242.08" y="184.84" width="0.38" height="54.07"></rect><rect class="cls-184" x="242.45" y="184.84" width="0.38" height="54.07"></rect><rect class="cls-185" x="242.83" y="184.84" width="0.38" height="54.07"></rect><rect class="cls-186" x="243.21" y="184.84" width="0.38" height="54.07"></rect><rect class="cls-187" x="243.58" y="184.84" width="0.38" height="54.07"></rect><rect class="cls-188" x="243.96" y="184.84" width="0.38" height="54.07"></rect><rect class="cls-189" x="244.34" y="184.84" width="0.38" height="54.07"></rect><rect class="cls-190" x="244.71" y="184.84" width="0.38" height="54.07"></rect><rect class="cls-191" x="245.09" y="184.84" width="0.38" height="54.07"></rect><rect class="cls-192" x="245.47" y="184.84" width="0.38" height="54.07"></rect><rect class="cls-193" x="245.84" y="184.84" width="0.38" height="54.07"></rect><rect class="cls-194" x="246.22" y="184.84" width="0.38" height="54.07"></rect><rect class="cls-195" x="246.6" y="184.84" width="0.38" height="54.07"></rect><rect class="cls-196" x="246.97" y="184.84" width="0.38" height="54.07"></rect><rect class="cls-197" x="247.35" y="184.84" width="0.38" height="54.07"></rect><rect class="cls-198" x="247.73" y="184.84" width="0.38" height="54.07"></rect><rect class="cls-199" x="248.1" y="184.84" width="0.38" height="54.07"></rect><rect class="cls-200" x="248.48" y="184.84" width="0.38" height="54.07"></rect><rect class="cls-201" x="248.85" y="184.84" width="0.38" height="54.07"></rect><rect class="cls-202" x="249.23" y="184.84" width="0.38" height="54.07"></rect><rect class="cls-203" x="249.61" y="184.84" width="0.38" height="54.07"></rect><rect class="cls-204" x="249.98" y="184.84" width="0.38" height="54.07"></rect><rect class="cls-205" x="250.36" y="184.84" width="0.38" height="54.07"></rect><rect class="cls-206" x="250.74" y="184.84" width="0.38" height="54.07"></rect><rect class="cls-207" x="251.11" y="184.84" width="0.38" height="54.07"></rect><rect class="cls-208" x="251.49" y="184.84" width="0.38" height="54.07"></rect><rect class="cls-209" x="251.87" y="184.84" width="0.38" height="54.07"></rect><rect class="cls-210" x="252.24" y="184.84" width="0.38" height="54.07"></rect><rect class="cls-211" x="252.62" y="184.84" width="0.38" height="54.07"></rect><rect class="cls-212" x="253" y="184.84" width="0.38" height="54.07"></rect><rect class="cls-213" x="253.37" y="184.84" width="0.38" height="54.07"></rect><rect class="cls-214" x="253.75" y="184.84" width="0.38" height="54.07"></rect><rect class="cls-215" x="254.13" y="184.84" width="0.38" height="54.07"></rect><rect class="cls-216" x="254.5" y="184.84" width="0.38" height="54.07"></rect><rect class="cls-217" x="254.88" y="184.84" width="0.38" height="54.07"></rect><rect class="cls-218" x="255.25" y="184.84" width="0.38" height="54.07"></rect><rect class="cls-219" x="255.63" y="184.84" width="0.38" height="54.07"></rect><rect class="cls-220" x="256.01" y="184.84" width="0.38" height="54.07"></rect><rect class="cls-221" x="256.38" y="184.84" width="0.38" height="54.07"></rect><rect class="cls-222" x="256.76" y="184.84" width="0.38" height="54.07"></rect><rect class="cls-223" x="257.14" y="184.84" width="0.38" height="54.07"></rect><rect class="cls-224" x="257.51" y="184.84" width="0.38" height="54.07"></rect><rect class="cls-225" x="257.89" y="184.84" width="0.38" height="54.07"></rect><rect class="cls-226" x="258.27" y="184.84" width="0.38" height="54.07"></rect><rect class="cls-227" x="258.64" y="184.84" width="0.38" height="54.07"></rect><rect class="cls-228" x="259.02" y="184.84" width="0.38" height="54.07"></rect><rect class="cls-229" x="259.4" y="184.84" width="0.38" height="54.07"></rect><rect class="cls-230" x="259.77" y="184.84" width="0.38" height="54.07"></rect><rect class="cls-231" x="260.15" y="184.84" width="0.38" height="54.07"></rect><rect class="cls-232" x="260.53" y="184.84" width="0.38" height="54.07"></rect><rect class="cls-233" x="260.9" y="184.84" width="0.38" height="54.07"></rect><rect class="cls-234" x="261.28" y="184.84" width="0.38" height="54.07"></rect><rect class="cls-235" x="261.65" y="184.84" width="0.38" height="54.07"></rect><rect class="cls-236" x="262.03" y="184.84" width="0.38" height="54.07"></rect><rect class="cls-237" x="262.41" y="184.84" width="0.38" height="54.07"></rect><rect class="cls-238" x="262.78" y="184.84" width="0.38" height="54.07"></rect><rect class="cls-239" x="263.16" y="184.84" width="0.38" height="54.07"></rect><path class="cls-239" d="M263.54,238.91v0Z"></path></g></g><path class="cls-240" d="M181.37,221.33s42.14,13,78.31,0,64.63-12.6,64.63-12.6L230,281.08,124.33,213.2S141.67,208.32,181.37,221.33Z"></path><path class="cls-14" d="M196.12,296.67c-7.08,2.07-13.71,2.75-15.39,8.84s2.06,11.78-3,19.21c-6.71,9.75-6.86,26.06-5.18,27.28s15.24-19.35,20.88-26.67,23.93-19.51,23.93-19.51l-7.93-15.55S200.83,295.3,196.12,296.67Z"></path><g class="cls-241"><g class="cls-242"><polygon class="cls-9" points="170.82 307.3 175.16 303.08 201.45 330.05 177.67 353.22 170.82 353.22 170.82 307.3"></polygon><rect class="cls-9" x="188.26" y="297.63" width="0.3" height="37.66" transform="translate(-167.41 221.4) rotate(-44.27)"></rect><rect class="cls-17" x="188.47" y="297.42" width="0.3" height="37.66" transform="translate(-167.16 221.32) rotate(-44.25)"></rect><rect class="cls-18" x="188.69" y="297.21" width="0.3" height="37.66" transform="translate(-166.99 221.58) rotate(-44.27)"></rect><rect class="cls-19" x="188.91" y="296.99" width="0.3" height="37.66" transform="translate(-166.78 221.67) rotate(-44.27)"></rect><rect class="cls-20" x="189.12" y="296.78" width="0.3" height="37.66" transform="translate(-166.55 221.68) rotate(-44.26)"></rect><rect class="cls-21" x="189.34" y="296.57" width="0.3" height="37.66" transform="translate(-166.37 221.86) rotate(-44.27)"></rect><rect class="cls-22" x="189.55" y="296.36" width="0.3" height="37.66" transform="translate(-166.16 221.95) rotate(-44.27)"></rect><rect class="cls-23" x="189.77" y="296.15" width="0.3" height="37.66" transform="translate(-165.93 221.95) rotate(-44.26)"></rect><rect class="cls-24" x="189.99" y="295.94" width="0.3" height="37.66" transform="translate(-165.74 222.13) rotate(-44.27)"></rect><rect class="cls-25" x="190.2" y="295.73" width="0.3" height="37.66" transform="translate(-165.51 222.13) rotate(-44.26)"></rect><rect class="cls-26" x="190.42" y="295.52" width="0.3" height="37.66" transform="translate(-165.31 222.23) rotate(-44.26)"></rect><rect class="cls-27" x="190.63" y="295.31" width="0.3" height="37.66" transform="translate(-165.12 222.4) rotate(-44.27)"></rect><rect class="cls-28" x="190.85" y="295.1" width="0.3" height="37.66" transform="translate(-164.91 222.49) rotate(-44.27)"></rect><rect class="cls-29" x="191.07" y="294.89" width="0.3" height="37.66" transform="translate(-164.7 222.58) rotate(-44.27)"></rect><rect class="cls-30" x="191.28" y="294.68" width="0.3" height="37.66" transform="translate(-164.47 222.59) rotate(-44.26)"></rect><rect class="cls-31" x="191.5" y="294.47" width="0.3" height="37.66" transform="translate(-164.29 222.76) rotate(-44.27)"></rect><rect class="cls-32" x="191.71" y="294.26" width="0.3" height="37.66" transform="translate(-164.08 222.86) rotate(-44.27)"></rect><rect class="cls-33" x="191.93" y="294.05" width="0.3" height="37.66" transform="translate(-163.83 222.78) rotate(-44.25)"></rect><rect class="cls-34" x="192.15" y="293.84" width="0.3" height="37.66" transform="translate(-163.66 223.04) rotate(-44.27)"></rect><rect class="cls-35" x="192.36" y="293.63" width="0.3" height="37.66" transform="translate(-163.45 223.13) rotate(-44.27)"></rect><rect class="cls-36" x="192.58" y="293.42" width="0.3" height="37.66" transform="translate(-163.22 223.14) rotate(-44.26)"></rect><rect class="cls-37" x="192.79" y="293.21" width="0.3" height="37.66" transform="translate(-163.04 223.31) rotate(-44.27)"></rect><rect class="cls-38" x="193.01" y="293" width="0.3" height="37.66" transform="translate(-162.83 223.4) rotate(-44.27)"></rect><rect class="cls-39" x="193.23" y="292.78" width="0.3" height="37.66" transform="translate(-162.6 223.41) rotate(-44.26)"></rect><rect class="cls-40" x="193.44" y="292.57" width="0.3" height="37.66" transform="translate(-162.41 223.58) rotate(-44.27)"></rect><rect class="cls-41" x="193.66" y="292.36" width="0.3" height="37.66" transform="translate(-162.18 223.59) rotate(-44.26)"></rect><rect class="cls-42" x="193.87" y="292.15" width="0.3" height="37.66" transform="translate(-161.97 223.68) rotate(-44.26)"></rect><rect class="cls-43" x="194.09" y="291.94" width="0.3" height="37.66" transform="translate(-161.79 223.86) rotate(-44.27)"></rect><rect class="cls-44" x="194.31" y="291.73" width="0.3" height="37.66" transform="translate(-161.58 223.95) rotate(-44.27)"></rect><rect class="cls-45" x="194.52" y="291.52" width="0.3" height="37.66" transform="translate(-161.37 224.04) rotate(-44.27)"></rect><rect class="cls-46" x="194.74" y="291.31" width="0.3" height="37.66" transform="translate(-161.14 224.05) rotate(-44.26)"></rect><rect class="cls-47" x="194.95" y="291.1" width="0.3" height="37.66" transform="translate(-160.95 224.22) rotate(-44.27)"></rect><rect class="cls-48" x="195.17" y="290.89" width="0.3" height="37.66" transform="translate(-160.74 224.31) rotate(-44.27)"></rect><rect class="cls-49" x="195.38" y="290.68" width="0.3" height="37.66" transform="translate(-160.5 224.24) rotate(-44.25)"></rect><rect class="cls-50" x="195.6" y="290.47" width="0.3" height="37.66" transform="translate(-160.33 224.49) rotate(-44.27)"></rect><rect class="cls-51" x="195.82" y="290.26" width="0.3" height="37.66" transform="translate(-160.12 224.58) rotate(-44.27)"></rect><rect class="cls-52" x="196.03" y="290.05" width="0.3" height="37.66" transform="translate(-159.89 224.59) rotate(-44.26)"></rect><rect class="cls-53" x="196.25" y="289.84" width="0.3" height="37.66" transform="translate(-159.7 224.77) rotate(-44.27)"></rect><rect class="cls-54" x="196.46" y="289.63" width="0.3" height="37.66" transform="translate(-159.5 224.86) rotate(-44.27)"></rect><rect class="cls-55" x="196.68" y="289.42" width="0.3" height="37.66" transform="translate(-159.27 224.87) rotate(-44.26)"></rect><rect class="cls-56" x="196.9" y="289.21" width="0.3" height="37.66" transform="translate(-159.08 225.04) rotate(-44.27)"></rect><rect class="cls-57" x="197.11" y="289" width="0.3" height="37.66" transform="translate(-158.85 225.05) rotate(-44.26)"></rect><rect class="cls-58" x="197.33" y="288.79" width="0.3" height="37.66" transform="translate(-158.64 225.14) rotate(-44.26)"></rect><rect class="cls-59" x="197.54" y="288.58" width="0.3" height="37.66" transform="translate(-158.45 225.31) rotate(-44.27)"></rect><rect class="cls-60" x="197.76" y="288.36" width="0.3" height="37.66" transform="translate(-158.25 225.4) rotate(-44.27)"></rect><rect class="cls-61" x="197.98" y="288.15" width="0.3" height="37.66" transform="translate(-158.04 225.49) rotate(-44.27)"></rect><rect class="cls-62" x="198.19" y="287.94" width="0.3" height="37.66" transform="translate(-157.81 225.5) rotate(-44.26)"></rect><rect class="cls-63" x="198.41" y="287.73" width="0.3" height="37.66" transform="translate(-157.62 225.68) rotate(-44.27)"></rect><rect class="cls-64" x="198.62" y="287.52" width="0.3" height="37.66" transform="translate(-157.41 225.77) rotate(-44.27)"></rect><rect class="cls-65" x="198.84" y="287.31" width="0.3" height="37.66" transform="translate(-157.17 225.69) rotate(-44.25)"></rect><rect class="cls-66" x="199.06" y="287.1" width="0.3" height="37.66" transform="translate(-157 225.95) rotate(-44.27)"></rect><rect class="cls-67" x="199.27" y="286.89" width="0.3" height="37.66" transform="translate(-156.79 226.04) rotate(-44.27)"></rect><rect class="cls-68" x="199.49" y="286.68" width="0.3" height="37.66" transform="translate(-156.56 226.05) rotate(-44.26)"></rect><rect class="cls-69" x="199.7" y="286.47" width="0.3" height="37.66" transform="translate(-156.37 226.22) rotate(-44.27)"></rect><rect class="cls-70" x="199.92" y="286.26" width="0.3" height="37.66" transform="translate(-156.16 226.31) rotate(-44.27)"></rect><rect class="cls-71" x="200.14" y="286.05" width="0.3" height="37.66" transform="translate(-155.94 226.32) rotate(-44.26)"></rect><rect class="cls-72" x="200.35" y="285.84" width="0.3" height="37.66" transform="translate(-155.75 226.49) rotate(-44.27)"></rect><rect class="cls-73" x="200.57" y="285.63" width="0.3" height="37.66" transform="translate(-155.52 226.5) rotate(-44.26)"></rect><rect class="cls-74" x="200.78" y="285.42" width="0.3" height="37.66" transform="translate(-155.31 226.59) rotate(-44.26)"></rect><rect class="cls-75" x="201" y="285.21" width="0.3" height="37.66" transform="translate(-155.12 226.77) rotate(-44.27)"></rect><polygon class="cls-76" points="188.11 290.45 188.29 290.27 188.36 290.27 214.62 317.21 214.4 317.42 188.11 290.45"></polygon><polygon class="cls-77" points="188.78 290.27 214.83 317 214.62 317.21 188.36 290.27 188.78 290.27"></polygon><polygon class="cls-78" points="189.21 290.27 215.05 316.79 214.83 317 188.78 290.27 189.21 290.27"></polygon><polygon class="cls-79" points="189.63 290.27 215.26 316.57 215.05 316.79 189.21 290.27 189.63 290.27"></polygon><polygon class="cls-80" points="190.05 290.27 215.48 316.36 215.26 316.57 189.63 290.27 190.05 290.27"></polygon><polygon class="cls-81" points="190.47 290.27 215.7 316.15 215.48 316.36 190.05 290.27 190.47 290.27"></polygon><polygon class="cls-82" points="190.89 290.27 215.91 315.94 215.7 316.15 190.47 290.27 190.89 290.27"></polygon><polygon class="cls-83" points="191.31 290.27 216.13 315.73 215.91 315.94 190.89 290.27 191.31 290.27"></polygon><polygon class="cls-84" points="191.73 290.27 216.34 315.52 216.13 315.73 191.31 290.27 191.73 290.27"></polygon><polygon class="cls-85" points="192.15 290.27 216.56 315.31 216.34 315.52 191.73 290.27 192.15 290.27"></polygon><polygon class="cls-86" points="192.57 290.27 216.78 315.1 216.56 315.31 192.15 290.27 192.57 290.27"></polygon><polygon class="cls-87" points="193 290.27 216.99 314.89 216.78 315.1 192.57 290.27 193 290.27"></polygon><polygon class="cls-88" points="193.42 290.27 217.21 314.68 216.99 314.89 193 290.27 193.42 290.27"></polygon><polygon class="cls-89" points="193.84 290.27 217.31 314.35 217.31 314.58 217.21 314.68 193.42 290.27 193.84 290.27"></polygon><polygon class="cls-90" points="194.26 290.27 217.31 313.92 217.31 314.35 193.84 290.27 194.26 290.27"></polygon><polygon class="cls-91" points="194.68 290.27 217.31 313.49 217.31 313.92 194.26 290.27 194.68 290.27"></polygon><polygon class="cls-92" points="195.1 290.27 217.31 313.06 217.31 313.49 194.68 290.27 195.1 290.27"></polygon><polygon class="cls-93" points="195.52 290.27 217.31 312.63 217.31 313.06 195.1 290.27 195.52 290.27"></polygon><polygon class="cls-94" points="195.94 290.27 217.31 312.19 217.31 312.63 195.52 290.27 195.94 290.27"></polygon><polygon class="cls-95" points="196.36 290.27 217.31 311.76 217.31 312.19 195.94 290.27 196.36 290.27"></polygon><polygon class="cls-96" points="196.78 290.27 217.31 311.33 217.31 311.76 196.36 290.27 196.78 290.27"></polygon><polygon class="cls-97" points="197.21 290.27 217.31 310.9 217.31 311.33 196.78 290.27 197.21 290.27"></polygon><polygon class="cls-98" points="197.63 290.27 217.31 310.46 217.31 310.9 197.21 290.27 197.63 290.27"></polygon><polygon class="cls-99" points="198.05 290.27 217.31 310.03 217.31 310.46 197.63 290.27 198.05 290.27"></polygon><polygon class="cls-100" points="198.47 290.27 217.31 309.6 217.31 310.03 198.05 290.27 198.47 290.27"></polygon><polygon class="cls-101" points="198.89 290.27 217.31 309.17 217.31 309.6 198.47 290.27 198.89 290.27"></polygon><polygon class="cls-102" points="199.31 290.27 217.31 308.74 217.31 309.17 198.89 290.27 199.31 290.27"></polygon><polygon class="cls-103" points="199.73 290.27 217.31 308.31 217.31 308.74 199.31 290.27 199.73 290.27"></polygon><polygon class="cls-104" points="200.15 290.27 217.31 307.87 217.31 308.31 199.73 290.27 200.15 290.27"></polygon><polygon class="cls-105" points="200.57 290.27 217.31 307.44 217.31 307.87 200.15 290.27 200.57 290.27"></polygon><polygon class="cls-106" points="201 290.27 217.31 307.01 217.31 307.44 200.57 290.27 201 290.27"></polygon><polygon class="cls-107" points="201.42 290.27 217.31 306.58 217.31 307.01 201 290.27 201.42 290.27"></polygon><polygon class="cls-108" points="201.84 290.27 217.31 306.14 217.31 306.58 201.42 290.27 201.84 290.27"></polygon><polygon class="cls-109" points="202.26 290.27 217.31 305.71 217.31 306.14 201.84 290.27 202.26 290.27"></polygon><polygon class="cls-110" points="202.68 290.27 217.31 305.28 217.31 305.71 202.26 290.27 202.68 290.27"></polygon><polygon class="cls-111" points="203.1 290.27 217.31 304.85 217.31 305.28 202.68 290.27 203.1 290.27"></polygon><polygon class="cls-112" points="203.52 290.27 217.31 304.42 217.31 304.85 203.1 290.27 203.52 290.27"></polygon><polygon class="cls-113" points="203.94 290.27 217.31 303.99 217.31 304.42 203.52 290.27 203.94 290.27"></polygon><polygon class="cls-114" points="204.37 290.27 217.31 303.55 217.31 303.99 203.94 290.27 204.37 290.27"></polygon><polygon class="cls-115" points="204.79 290.27 217.31 303.12 217.31 303.55 204.37 290.27 204.79 290.27"></polygon><polygon class="cls-116" points="205.21 290.27 217.31 302.69 217.31 303.12 204.79 290.27 205.21 290.27"></polygon><polygon class="cls-117" points="205.63 290.27 217.31 302.26 217.31 302.69 205.21 290.27 205.63 290.27"></polygon><polygon class="cls-118" points="206.05 290.27 217.31 301.82 217.31 302.26 205.63 290.27 206.05 290.27"></polygon><polygon class="cls-119" points="206.47 290.27 217.31 301.39 217.31 301.82 206.05 290.27 206.47 290.27"></polygon><polygon class="cls-120" points="206.89 290.27 217.31 300.96 217.31 301.39 206.47 290.27 206.89 290.27"></polygon><polygon class="cls-121" points="207.31 290.27 217.31 300.53 217.31 300.96 206.89 290.27 207.31 290.27"></polygon><polygon class="cls-122" points="207.73 290.27 217.31 300.1 217.31 300.53 207.31 290.27 207.73 290.27"></polygon><polygon class="cls-123" points="208.16 290.27 217.31 299.67 217.31 300.1 207.73 290.27 208.16 290.27"></polygon><polygon class="cls-124" points="208.58 290.27 217.31 299.23 217.31 299.67 208.16 290.27 208.58 290.27"></polygon><polygon class="cls-125" points="209 290.27 217.31 298.8 217.31 299.23 208.58 290.27 209 290.27"></polygon><polygon class="cls-126" points="209.42 290.27 217.31 298.37 217.31 298.8 209 290.27 209.42 290.27"></polygon><polygon class="cls-127" points="209.84 290.27 217.31 297.94 217.31 298.37 209.42 290.27 209.84 290.27"></polygon><polygon class="cls-128" points="210.26 290.27 217.31 297.5 217.31 297.94 209.84 290.27 210.26 290.27"></polygon><polygon class="cls-129" points="210.68 290.27 217.31 297.07 217.31 297.5 210.26 290.27 210.68 290.27"></polygon><polygon class="cls-130" points="211.1 290.27 217.31 296.64 217.31 297.07 210.68 290.27 211.1 290.27"></polygon><polygon class="cls-131" points="211.52 290.27 217.31 296.21 217.31 296.64 211.1 290.27 211.52 290.27"></polygon><polygon class="cls-132" points="211.95 290.27 217.31 295.78 217.31 296.21 211.52 290.27 211.95 290.27"></polygon><polygon class="cls-133" points="212.37 290.27 217.31 295.35 217.31 295.78 211.95 290.27 212.37 290.27"></polygon><polygon class="cls-134" points="212.79 290.27 217.31 294.91 217.31 295.35 212.37 290.27 212.79 290.27"></polygon><polygon class="cls-135" points="213.21 290.27 217.31 294.48 217.31 294.91 212.79 290.27 213.21 290.27"></polygon><polygon class="cls-136" points="213.63 290.27 217.31 294.05 217.31 294.48 213.21 290.27 213.63 290.27"></polygon><polygon class="cls-137" points="214.05 290.27 217.31 293.62 217.31 294.05 213.63 290.27 214.05 290.27"></polygon><polygon class="cls-138" points="214.47 290.27 217.31 293.19 217.31 293.62 214.05 290.27 214.47 290.27"></polygon><polygon class="cls-139" points="214.89 290.27 217.31 292.75 217.31 293.19 214.47 290.27 214.89 290.27"></polygon><polygon class="cls-140" points="215.31 290.27 217.31 292.32 217.31 292.75 214.89 290.27 215.31 290.27"></polygon><polygon class="cls-141" points="215.74 290.27 217.31 291.89 217.31 292.32 215.31 290.27 215.74 290.27"></polygon><polygon class="cls-142" points="216.16 290.27 217.31 291.46 217.31 291.89 215.74 290.27 216.16 290.27"></polygon><polygon class="cls-143" points="216.58 290.27 217.31 291.02 217.31 291.46 216.16 290.27 216.58 290.27"></polygon><polygon class="cls-144" points="217 290.27 217.31 290.59 217.31 291.02 216.58 290.27 217 290.27"></polygon><polygon class="cls-145" points="217.31 290.59 217 290.27 217.31 290.27 217.31 290.59"></polygon></g></g><path class="cls-14" d="M259.55,299.42c7.08,2.06,13.72,2.74,15.4,8.84S272.89,320,278,327.46c6.7,9.76,6.86,26.07,5.18,27.29s-15.24-19.36-20.88-26.68-23.93-19.51-23.93-19.51L246.29,293S254.84,298.05,259.55,299.42Z"></path><path class="cls-243" d="M207.66,290.42s19.91-14.22,52-39,43.9-42.27,64.63-42.67S352,241.24,297.48,266s-80.07,42.68-80.07,42.68Z"></path><g class="cls-15"><g class="cls-244"><polygon class="cls-9" points="351.95 244.19 328.03 260.4 295.15 211.9 300.43 208.32 351.95 208.32 351.95 244.19"></polygon><rect class="cls-9" x="310.96" y="207.05" width="0.69" height="58.59" transform="translate(-78.99 215.38) rotate(-34.13)"></rect><rect class="cls-17" x="310.38" y="207.44" width="0.69" height="58.59" transform="translate(-79.31 215.08) rotate(-34.13)"></rect><rect class="cls-18" x="309.81" y="207.83" width="0.69" height="58.59" transform="translate(-79.62 214.83) rotate(-34.13)"></rect><rect class="cls-19" x="309.23" y="208.22" width="0.69" height="58.59" transform="translate(-79.94 214.57) rotate(-34.13)"></rect><rect class="cls-20" x="308.66" y="208.61" width="0.69" height="58.59" transform="translate(-80.26 214.32) rotate(-34.13)"></rect><rect class="cls-21" x="308.08" y="209" width="0.69" height="58.59" transform="translate(-80.58 214.11) rotate(-34.13)"></rect><rect class="cls-22" x="307.51" y="209.38" width="0.69" height="58.59" transform="translate(-80.89 213.81) rotate(-34.13)"></rect><rect class="cls-23" x="306.94" y="209.77" width="0.69" height="58.59" transform="translate(-81.21 213.55) rotate(-34.13)"></rect><rect class="cls-24" x="306.36" y="210.16" width="0.69" height="58.59" transform="translate(-81.52 213.27) rotate(-34.12)"></rect><rect class="cls-25" x="305.79" y="210.55" width="0.69" height="58.59" transform="translate(-81.84 213.04) rotate(-34.13)"></rect><rect class="cls-26" x="305.21" y="210.94" width="0.69" height="58.59" transform="translate(-82.16 212.83) rotate(-34.13)"></rect><rect class="cls-27" x="304.64" y="211.33" width="0.69" height="58.59" transform="translate(-82.48 212.53) rotate(-34.13)"></rect><rect class="cls-28" x="304.06" y="211.72" width="0.69" height="58.59" transform="translate(-82.8 212.28) rotate(-34.13)"></rect><rect class="cls-29" x="303.49" y="212.11" width="0.69" height="58.59" transform="translate(-83.11 212.02) rotate(-34.13)"></rect><rect class="cls-30" x="302.92" y="212.5" width="0.69" height="58.59" transform="translate(-83.43 211.77) rotate(-34.13)"></rect><rect class="cls-31" x="302.34" y="212.89" width="0.69" height="58.59" transform="translate(-83.75 211.56) rotate(-34.13)"></rect><rect class="cls-32" x="301.77" y="213.28" width="0.69" height="58.59" transform="translate(-84.06 211.26) rotate(-34.13)"></rect><rect class="cls-33" x="301.19" y="213.67" width="0.69" height="58.59" transform="translate(-84.38 211) rotate(-34.13)"></rect><rect class="cls-34" x="300.62" y="214.05" width="0.69" height="58.59" transform="translate(-84.7 210.74) rotate(-34.13)"></rect><rect class="cls-35" x="300.04" y="214.44" width="0.69" height="58.59" transform="translate(-85.02 210.54) rotate(-34.13)"></rect><rect class="cls-36" x="299.47" y="214.83" width="0.69" height="58.59" transform="translate(-85.33 210.23) rotate(-34.13)"></rect><rect class="cls-37" x="298.9" y="215.22" width="0.69" height="58.59" transform="translate(-85.65 209.98) rotate(-34.13)"></rect><rect class="cls-38" x="298.32" y="215.61" width="0.69" height="58.59" transform="translate(-85.97 209.72) rotate(-34.13)"></rect><rect class="cls-39" x="297.75" y="216" width="0.69" height="58.59" transform="translate(-86.29 209.47) rotate(-34.13)"></rect><rect class="cls-40" x="297.17" y="216.39" width="0.69" height="58.59" transform="translate(-86.61 209.26) rotate(-34.13)"></rect><rect class="cls-41" x="296.6" y="216.78" width="0.69" height="58.59" transform="translate(-86.92 208.96) rotate(-34.13)"></rect><rect class="cls-42" x="296.02" y="217.17" width="0.69" height="58.59" transform="translate(-87.24 208.7) rotate(-34.13)"></rect><rect class="cls-43" x="295.45" y="217.56" width="0.69" height="58.59" transform="translate(-87.55 208.45) rotate(-34.13)"></rect><rect class="cls-44" x="294.88" y="217.95" width="0.69" height="58.59" transform="translate(-87.87 208.19) rotate(-34.13)"></rect><rect class="cls-45" x="294.3" y="218.34" width="0.69" height="58.59" transform="translate(-88.19 207.98) rotate(-34.13)"></rect><rect class="cls-46" x="293.73" y="218.73" width="0.69" height="58.59" transform="translate(-88.5 207.65) rotate(-34.12)"></rect><rect class="cls-47" x="293.15" y="219.11" width="0.69" height="58.59" transform="translate(-88.82 207.43) rotate(-34.13)"></rect><rect class="cls-48" x="292.58" y="219.5" width="0.69" height="58.59" transform="translate(-89.14 207.17) rotate(-34.13)"></rect><rect class="cls-49" x="292" y="219.89" width="0.69" height="58.59" transform="translate(-89.46 206.92) rotate(-34.13)"></rect><rect class="cls-50" x="291.43" y="220.28" width="0.69" height="58.59" transform="translate(-89.78 206.71) rotate(-34.13)"></rect><rect class="cls-51" x="290.85" y="220.67" width="0.69" height="58.59" transform="translate(-90.09 206.41) rotate(-34.13)"></rect><rect class="cls-52" x="290.28" y="221.06" width="0.69" height="58.59" transform="translate(-90.41 206.15) rotate(-34.13)"></rect><rect class="cls-53" x="289.71" y="221.45" width="0.69" height="58.59" transform="translate(-90.73 205.9) rotate(-34.13)"></rect><rect class="cls-54" x="289.13" y="221.84" width="0.69" height="58.59" transform="translate(-91.04 205.64) rotate(-34.13)"></rect><rect class="cls-55" x="288.56" y="222.23" width="0.69" height="58.59" transform="translate(-91.37 205.43) rotate(-34.13)"></rect><rect class="cls-56" x="287.98" y="222.62" width="0.69" height="58.59" transform="translate(-91.68 205.13) rotate(-34.13)"></rect><rect class="cls-57" x="287.41" y="223.01" width="0.69" height="58.59" transform="translate(-92 204.88) rotate(-34.13)"></rect><rect class="cls-58" x="286.83" y="223.4" width="0.69" height="58.59" transform="translate(-92.31 204.62) rotate(-34.13)"></rect><rect class="cls-59" x="286.26" y="223.79" width="0.69" height="58.59" transform="translate(-92.63 204.37) rotate(-34.13)"></rect><rect class="cls-60" x="285.69" y="224.17" width="0.69" height="58.59" transform="translate(-92.95 204.16) rotate(-34.13)"></rect><rect class="cls-61" x="285.11" y="224.56" width="0.69" height="58.59" transform="translate(-93.26 203.86) rotate(-34.13)"></rect><rect class="cls-62" x="284.54" y="224.95" width="0.69" height="58.59" transform="translate(-93.58 203.6) rotate(-34.13)"></rect><rect class="cls-63" x="283.96" y="225.34" width="0.69" height="58.59" transform="translate(-93.9 203.34) rotate(-34.13)"></rect><rect class="cls-64" x="283.39" y="225.73" width="0.69" height="58.59" transform="translate(-94.22 203.09) rotate(-34.13)"></rect><rect class="cls-65" x="282.81" y="226.12" width="0.69" height="58.59" transform="translate(-94.54 202.88) rotate(-34.13)"></rect><rect class="cls-66" x="282.24" y="226.51" width="0.69" height="58.59" transform="translate(-94.85 202.58) rotate(-34.13)"></rect><rect class="cls-67" x="281.67" y="226.9" width="0.69" height="58.59" transform="translate(-95.17 202.32) rotate(-34.13)"></rect><rect class="cls-68" x="281.09" y="227.29" width="0.69" height="58.59" transform="translate(-95.49 202.07) rotate(-34.13)"></rect><rect class="cls-69" x="280.52" y="227.68" width="0.69" height="58.59" transform="translate(-95.8 201.78) rotate(-34.12)"></rect><rect class="cls-70" x="279.94" y="228.07" width="0.69" height="58.59" transform="translate(-96.13 201.6) rotate(-34.13)"></rect><rect class="cls-71" x="279.37" y="228.46" width="0.69" height="58.59" transform="translate(-96.44 201.3) rotate(-34.13)"></rect><rect class="cls-72" x="278.79" y="228.85" width="0.69" height="58.59" transform="translate(-96.75 201.05) rotate(-34.13)"></rect><rect class="cls-73" x="278.22" y="229.23" width="0.69" height="58.59" transform="translate(-97.07 200.79) rotate(-34.13)"></rect><rect class="cls-74" x="277.65" y="229.62" width="0.69" height="58.59" transform="translate(-97.4 200.58) rotate(-34.13)"></rect><rect class="cls-75" x="277.07" y="230.01" width="0.69" height="58.59" transform="translate(-97.71 200.28) rotate(-34.13)"></rect><rect class="cls-76" x="276.5" y="230.4" width="0.69" height="58.59" transform="translate(-98.02 200.03) rotate(-34.13)"></rect><rect class="cls-77" x="275.92" y="230.79" width="0.69" height="58.59" transform="translate(-98.34 199.77) rotate(-34.13)"></rect><rect class="cls-78" x="275.35" y="231.18" width="0.69" height="58.59" transform="translate(-98.66 199.52) rotate(-34.13)"></rect><rect class="cls-79" x="274.77" y="231.57" width="0.69" height="58.59" transform="translate(-98.98 199.31) rotate(-34.13)"></rect><rect class="cls-80" x="274.2" y="231.96" width="0.69" height="58.59" transform="translate(-99.29 199.01) rotate(-34.13)"></rect><rect class="cls-81" x="273.63" y="232.35" width="0.69" height="58.59" transform="translate(-99.61 198.75) rotate(-34.13)"></rect><rect class="cls-82" x="273.05" y="232.74" width="0.69" height="58.59" transform="translate(-99.93 198.5) rotate(-34.13)"></rect><rect class="cls-83" x="272.48" y="233.13" width="0.69" height="58.59" transform="translate(-100.24 198.24) rotate(-34.13)"></rect><rect class="cls-84" x="271.9" y="233.52" width="0.69" height="58.59" transform="translate(-100.57 198.03) rotate(-34.13)"></rect><rect class="cls-85" x="271.33" y="233.91" width="0.69" height="58.59" transform="translate(-100.88 197.73) rotate(-34.13)"></rect><rect class="cls-86" x="270.75" y="234.29" width="0.69" height="58.59" transform="translate(-101.2 197.48) rotate(-34.13)"></rect><rect class="cls-87" x="270.18" y="234.68" width="0.69" height="58.59" transform="translate(-101.51 197.22) rotate(-34.13)"></rect><rect class="cls-88" x="269.61" y="235.07" width="0.69" height="58.59" transform="translate(-101.83 196.97) rotate(-34.13)"></rect><rect class="cls-89" x="269.03" y="235.46" width="0.69" height="58.59" transform="translate(-102.16 196.75) rotate(-34.13)"></rect><rect class="cls-90" x="268.46" y="235.85" width="0.69" height="58.59" transform="translate(-102.46 196.46) rotate(-34.13)"></rect><rect class="cls-91" x="267.88" y="236.24" width="0.69" height="58.59" transform="translate(-102.78 196.2) rotate(-34.13)"></rect><rect class="cls-92" x="267.31" y="236.63" width="0.69" height="58.59" transform="translate(-103.09 195.91) rotate(-34.12)"></rect><rect class="cls-93" x="266.73" y="237.02" width="0.69" height="58.59" transform="translate(-103.42 195.69) rotate(-34.13)"></rect><rect class="cls-94" x="266.16" y="237.41" width="0.69" height="58.59" transform="translate(-103.74 195.48) rotate(-34.13)"></rect><rect class="cls-95" x="265.59" y="237.8" width="0.69" height="58.59" transform="translate(-104.05 195.18) rotate(-34.13)"></rect><rect class="cls-96" x="265.01" y="238.19" width="0.69" height="58.59" transform="translate(-104.37 194.92) rotate(-34.13)"></rect><rect class="cls-97" x="264.44" y="238.58" width="0.69" height="58.59" transform="translate(-104.69 194.67) rotate(-34.13)"></rect><rect class="cls-98" x="263.86" y="238.97" width="0.69" height="58.59" transform="translate(-105 194.41) rotate(-34.13)"></rect><rect class="cls-99" x="263.29" y="239.35" width="0.69" height="58.59" transform="translate(-105.33 194.2) rotate(-34.13)"></rect><rect class="cls-100" x="262.71" y="239.74" width="0.69" height="58.59" transform="translate(-105.64 193.9) rotate(-34.13)"></rect><rect class="cls-101" x="262.14" y="240.13" width="0.69" height="58.59" transform="translate(-105.95 193.65) rotate(-34.13)"></rect><rect class="cls-102" x="261.57" y="240.52" width="0.69" height="58.59" transform="translate(-106.27 193.39) rotate(-34.13)"></rect><rect class="cls-103" x="260.99" y="240.91" width="0.69" height="58.59" transform="translate(-106.59 193.14) rotate(-34.13)"></rect><rect class="cls-104" x="260.42" y="241.3" width="0.69" height="58.59" transform="translate(-106.92 192.93) rotate(-34.13)"></rect><rect class="cls-105" x="259.84" y="241.69" width="0.69" height="58.59" transform="translate(-107.22 192.63) rotate(-34.13)"></rect><rect class="cls-106" x="259.27" y="242.08" width="0.69" height="58.59" transform="translate(-107.54 192.37) rotate(-34.13)"></rect><rect class="cls-107" x="258.69" y="242.47" width="0.69" height="58.59" transform="translate(-107.86 192.12) rotate(-34.13)"></rect><rect class="cls-108" x="258.12" y="242.86" width="0.69" height="58.59" transform="translate(-108.18 191.86) rotate(-34.13)"></rect><rect class="cls-109" x="257.55" y="243.25" width="0.69" height="58.59" transform="translate(-108.5 191.65) rotate(-34.13)"></rect><rect class="cls-110" x="256.97" y="243.64" width="0.69" height="58.59" transform="translate(-108.81 191.35) rotate(-34.13)"></rect><rect class="cls-111" x="256.4" y="244.02" width="0.69" height="58.59" transform="translate(-109.13 191.1) rotate(-34.13)"></rect><rect class="cls-112" x="255.82" y="244.41" width="0.69" height="58.59" transform="translate(-109.44 190.84) rotate(-34.13)"></rect><rect class="cls-113" x="255.25" y="244.8" width="0.69" height="58.59" transform="translate(-109.77 190.63) rotate(-34.13)"></rect><rect class="cls-114" x="254.67" y="245.19" width="0.69" height="58.59" transform="translate(-110.08 190.33) rotate(-34.13)"></rect><rect class="cls-115" x="254.1" y="245.58" width="0.69" height="58.59" transform="translate(-110.39 190.05) rotate(-34.12)"></rect><rect class="cls-116" x="253.53" y="245.97" width="0.69" height="58.59" transform="translate(-110.71 189.82) rotate(-34.13)"></rect><rect class="cls-117" x="252.95" y="246.36" width="0.69" height="58.59" transform="translate(-111.03 189.57) rotate(-34.13)"></rect><rect class="cls-118" x="252.38" y="246.75" width="0.69" height="58.59" transform="translate(-111.36 189.35) rotate(-34.13)"></rect><rect class="cls-119" x="251.8" y="247.14" width="0.69" height="58.59" transform="translate(-111.66 189.06) rotate(-34.13)"></rect><rect class="cls-120" x="251.23" y="247.53" width="0.69" height="58.59" transform="translate(-111.98 188.8) rotate(-34.13)"></rect><rect class="cls-121" x="250.65" y="247.92" width="0.69" height="58.59" transform="translate(-112.3 188.55) rotate(-34.13)"></rect><rect class="cls-122" x="250.08" y="248.31" width="0.69" height="58.59" transform="translate(-112.62 188.29) rotate(-34.13)"></rect><rect class="cls-123" x="249.5" y="248.7" width="0.69" height="58.59" transform="translate(-112.94 188.08) rotate(-34.13)"></rect><rect class="cls-124" x="248.93" y="249.08" width="0.69" height="58.59" transform="translate(-113.25 187.78) rotate(-34.13)"></rect><rect class="cls-125" x="248.36" y="249.47" width="0.69" height="58.59" transform="translate(-113.57 187.52) rotate(-34.13)"></rect><rect class="cls-126" x="247.78" y="249.86" width="0.69" height="58.59" transform="translate(-113.89 187.27) rotate(-34.13)"></rect><rect class="cls-127" x="247.21" y="250.25" width="0.69" height="58.59" transform="translate(-114.2 187.01) rotate(-34.13)"></rect><rect class="cls-128" x="246.63" y="250.64" width="0.69" height="58.59" transform="translate(-114.53 186.8) rotate(-34.13)"></rect><rect class="cls-129" x="246.06" y="251.03" width="0.69" height="58.59" transform="translate(-114.84 186.5) rotate(-34.13)"></rect><rect class="cls-130" x="245.48" y="251.42" width="0.69" height="58.59" transform="translate(-115.15 186.25) rotate(-34.13)"></rect><rect class="cls-131" x="244.91" y="251.81" width="0.69" height="58.59" transform="translate(-115.47 185.99) rotate(-34.13)"></rect><rect class="cls-132" x="244.34" y="252.2" width="0.69" height="58.59" transform="translate(-115.79 185.74) rotate(-34.13)"></rect><rect class="cls-133" x="243.76" y="252.59" width="0.69" height="58.59" transform="translate(-116.12 185.53) rotate(-34.13)"></rect><rect class="cls-134" x="243.19" y="252.98" width="0.69" height="58.59" transform="translate(-116.42 185.23) rotate(-34.13)"></rect><rect class="cls-135" x="242.61" y="253.37" width="0.69" height="58.59" transform="translate(-116.74 184.97) rotate(-34.13)"></rect><rect class="cls-136" x="242.04" y="253.76" width="0.69" height="58.59" transform="translate(-117.06 184.72) rotate(-34.13)"></rect><rect class="cls-137" x="241.46" y="254.14" width="0.69" height="58.59" transform="translate(-117.37 184.43) rotate(-34.12)"></rect><rect class="cls-138" x="240.89" y="254.53" width="0.69" height="58.59" transform="translate(-117.7 184.25) rotate(-34.13)"></rect><rect class="cls-139" x="240.32" y="254.92" width="0.69" height="58.59" transform="translate(-118.01 183.95) rotate(-34.13)"></rect><polygon class="cls-140" points="256.81 308.67 256.74 308.72 256.01 308.72 223.37 260.55 223.94 260.16 256.81 308.67"></polygon><polygon class="cls-141" points="255.17 308.72 222.79 260.94 223.37 260.55 256.01 308.72 255.17 308.72"></polygon><polygon class="cls-142" points="254.33 308.72 222.22 261.33 222.79 260.94 255.17 308.72 254.33 308.72"></polygon><polygon class="cls-143" points="253.49 308.72 221.64 261.72 222.22 261.33 254.33 308.72 253.49 308.72"></polygon><polygon class="cls-144" points="252.66 308.72 221.07 262.11 221.64 261.72 253.49 308.72 252.66 308.72"></polygon><polygon class="cls-145" points="251.82 308.72 220.49 262.5 221.07 262.11 252.66 308.72 251.82 308.72"></polygon><polygon class="cls-146" points="250.98 308.72 219.92 262.89 220.49 262.5 251.82 308.72 250.98 308.72"></polygon><polygon class="cls-147" points="250.14 308.72 219.34 263.28 219.92 262.89 250.98 308.72 250.14 308.72"></polygon><polygon class="cls-148" points="249.3 308.72 218.77 263.67 219.34 263.28 250.14 308.72 249.3 308.72"></polygon><polygon class="cls-149" points="248.46 308.72 218.2 264.06 218.77 263.67 249.3 308.72 248.46 308.72"></polygon><polygon class="cls-150" points="247.63 308.72 217.62 264.44 218.2 264.06 248.46 308.72 247.63 308.72"></polygon><polygon class="cls-151" points="246.79 308.72 217.05 264.83 217.62 264.44 247.63 308.72 246.79 308.72"></polygon><polygon class="cls-152" points="245.95 308.72 216.47 265.22 217.05 264.83 246.79 308.72 245.95 308.72"></polygon><polygon class="cls-153" points="245.11 308.72 215.9 265.61 216.47 265.22 245.95 308.72 245.11 308.72"></polygon><polygon class="cls-154" points="244.27 308.72 215.32 266 215.9 265.61 245.11 308.72 244.27 308.72"></polygon><polygon class="cls-155" points="243.44 308.72 214.75 266.39 215.32 266 244.27 308.72 243.44 308.72"></polygon><polygon class="cls-156" points="242.6 308.72 214.18 266.78 214.75 266.39 243.44 308.72 242.6 308.72"></polygon><polygon class="cls-157" points="241.76 308.72 213.6 267.17 214.18 266.78 242.6 308.72 241.76 308.72"></polygon><polygon class="cls-158" points="240.92 308.72 213.03 267.56 213.6 267.17 241.76 308.72 240.92 308.72"></polygon><polygon class="cls-159" points="240.08 308.72 212.45 267.95 213.03 267.56 240.92 308.72 240.08 308.72"></polygon><polygon class="cls-160" points="239.25 308.72 211.88 268.34 212.45 267.95 240.08 308.72 239.25 308.72"></polygon><polygon class="cls-161" points="238.41 308.72 211.31 268.73 211.88 268.34 239.25 308.72 238.41 308.72"></polygon><polygon class="cls-162" points="237.57 308.72 210.73 269.12 211.31 268.73 238.41 308.72 237.57 308.72"></polygon><polygon class="cls-163" points="236.73 308.72 210.16 269.5 210.73 269.12 237.57 308.72 236.73 308.72"></polygon><polygon class="cls-164" points="235.89 308.72 209.58 269.89 210.16 269.5 236.73 308.72 235.89 308.72"></polygon><polygon class="cls-165" points="235.06 308.72 209.01 270.28 209.58 269.89 235.89 308.72 235.06 308.72"></polygon><polygon class="cls-166" points="234.22 308.72 208.43 270.67 209.01 270.28 235.06 308.72 234.22 308.72"></polygon><polygon class="cls-167" points="233.38 308.72 207.86 271.06 208.43 270.67 234.22 308.72 233.38 308.72"></polygon><polygon class="cls-168" points="232.54 308.72 207.66 272 207.66 271.2 207.86 271.06 233.38 308.72 232.54 308.72"></polygon><polygon class="cls-169" points="231.7 308.72 207.66 273.24 207.66 272 232.54 308.72 231.7 308.72"></polygon><polygon class="cls-170" points="230.86 308.72 207.66 274.47 207.66 273.24 231.7 308.72 230.86 308.72"></polygon><polygon class="cls-171" points="230.03 308.72 207.66 275.71 207.66 274.47 230.86 308.72 230.03 308.72"></polygon><polygon class="cls-172" points="229.19 308.72 207.66 276.95 207.66 275.71 230.03 308.72 229.19 308.72"></polygon><polygon class="cls-173" points="228.35 308.72 207.66 278.18 207.66 276.95 229.19 308.72 228.35 308.72"></polygon><polygon class="cls-174" points="227.51 308.72 207.66 279.42 207.66 278.18 228.35 308.72 227.51 308.72"></polygon><polygon class="cls-175" points="226.67 308.72 207.66 280.66 207.66 279.42 227.51 308.72 226.67 308.72"></polygon><polygon class="cls-176" points="225.84 308.72 207.66 281.89 207.66 280.66 226.67 308.72 225.84 308.72"></polygon><polygon class="cls-177" points="225 308.72 207.66 283.13 207.66 281.89 225.84 308.72 225 308.72"></polygon><polygon class="cls-178" points="224.16 308.72 207.66 284.37 207.66 283.13 225 308.72 224.16 308.72"></polygon><polygon class="cls-179" points="223.32 308.72 207.66 285.6 207.66 284.37 224.16 308.72 223.32 308.72"></polygon><polygon class="cls-180" points="222.48 308.72 207.66 286.84 207.66 285.6 223.32 308.72 222.48 308.72"></polygon><polygon class="cls-181" points="221.65 308.72 207.66 288.08 207.66 286.84 222.48 308.72 221.65 308.72"></polygon><polygon class="cls-182" points="220.81 308.72 207.66 289.31 207.66 288.08 221.65 308.72 220.81 308.72"></polygon><polygon class="cls-183" points="219.97 308.72 207.66 290.55 207.66 289.31 220.81 308.72 219.97 308.72"></polygon><polygon class="cls-184" points="219.13 308.72 207.66 291.79 207.66 290.55 219.97 308.72 219.13 308.72"></polygon><polygon class="cls-185" points="218.29 308.72 207.66 293.02 207.66 291.79 219.13 308.72 218.29 308.72"></polygon><polygon class="cls-186" points="217.46 308.72 207.66 294.26 207.66 293.02 218.29 308.72 217.46 308.72"></polygon><polygon class="cls-187" points="216.62 308.72 207.66 295.5 207.66 294.26 217.46 308.72 216.62 308.72"></polygon><polygon class="cls-188" points="215.78 308.72 207.66 296.73 207.66 295.5 216.62 308.72 215.78 308.72"></polygon><polygon class="cls-189" points="214.94 308.72 207.66 297.97 207.66 296.73 215.78 308.72 214.94 308.72"></polygon><polygon class="cls-190" points="214.1 308.72 207.66 299.21 207.66 297.97 214.94 308.72 214.1 308.72"></polygon><polygon class="cls-191" points="213.26 308.72 207.66 300.44 207.66 299.21 214.1 308.72 213.26 308.72"></polygon><polygon class="cls-192" points="212.43 308.72 207.66 301.68 207.66 300.44 213.26 308.72 212.43 308.72"></polygon><polygon class="cls-193" points="211.59 308.72 207.66 302.92 207.66 301.68 212.43 308.72 211.59 308.72"></polygon><polygon class="cls-194" points="210.75 308.72 207.66 304.15 207.66 302.92 211.59 308.72 210.75 308.72"></polygon><polygon class="cls-195" points="209.91 308.72 207.66 305.39 207.66 304.15 210.75 308.72 209.91 308.72"></polygon><polygon class="cls-196" points="209.07 308.72 207.66 306.63 207.66 305.39 209.91 308.72 209.07 308.72"></polygon><polygon class="cls-197" points="208.24 308.72 207.66 307.86 207.66 306.63 209.07 308.72 208.24 308.72"></polygon><polygon class="cls-198" points="207.66 307.86 208.24 308.72 207.66 308.72 207.66 307.86"></polygon></g></g><path class="cls-243" d="M249.4,293l-9.75,18.29S214,293.44,159.57,268.65c-20.29-9.24-32.07-19.6-37.77-29-9.62-15.74-2.06-28.61,11-28.35,20.73.41,32.51,17.88,64.62,42.68,27.59,21.3,46.19,34.81,50.87,38.19Z"></path><path class="cls-14" d="M232.46,70.46v18.9c0,5.39-7,9.76-12.41,9.76h0c-5.37,0-13-4.37-13-9.76V70.46Z"></path><path class="cls-245" d="M232.46,70.46v2.59c-2.12,3.83-7.07,9.67-12.33,9.38-5.63-.31-11.2-6-13.09-10.35V70.46Z"></path><path class="cls-246" d="M238.08,46.85H201.42s-.54-5-.84-6.57c-2.24-12.12,6.11-20.51,14.87-20.51h8.6c8.76,0,16.36,7.37,15.45,18.85A48.54,48.54,0,0,1,238.08,46.85Z"></path><path class="cls-14" d="M202.31,34.25s-2,17.27,0,27.24c1.19,6,9.85,17.12,17.47,17.12,8.39,0,16.37-11.11,17.48-17.12,1.84-10,0-27.24,0-27.24Z"></path><rect class="cls-14" x="197.77" y="45.23" width="43.97" height="10.16" rx="4.17"></rect><path class="cls-246" d="M201.42,45.23c.26-3.47,1.5-11.59,6.78-11s13,5,21.44,4.07,8.44,6.5,8.44,6.5l.81-7.72-2.24-7.22-35.23,2.85Z"></path><path class="cls-247" d="M249.4,293l-9.75,18.29S214,293.44,159.57,268.65c-20.29-9.24-32.07-19.6-37.77-29,18.38,23.77,87.23,47.5,126.44,52.52Z"></path></g></g></g></svg>