<svg xmlns="http://www.w3.org/2000/svg" xmlns:xlink="http://www.w3.org/1999/xlink" viewBox="0 0 410.68 378.25"><defs><style>.cls-1{isolation:isolate;}.cls-2{fill:#eafaf7;}.cls-12,.cls-17,.cls-19,.cls-20,.cls-21,.cls-3{mix-blend-mode:multiply;}.cls-3{opacity:0.16;}.cls-4{fill:#74869a;}.cls-5{fill:url(#linear-gradient);}.cls-6{fill:none;stroke:#fff;stroke-miterlimit:10;opacity:0.58;}.cls-7{fill:#3cb5ac;}.cls-8{fill:url(#linear-gradient-2);}.cls-9{fill:url(#linear-gradient-3);}.cls-10{fill:url(#linear-gradient-4);}.cls-11{fill:#2a3e59;}.cls-12,.cls-17,.cls-19,.cls-20,.cls-21{opacity:0.15;}.cls-12{fill:url(#White_Black_2);}.cls-13{fill:#ffcaa6;}.cls-14,.cls-15{mix-blend-mode:screen;opacity:0.19;}.cls-14{fill:url(#linear-gradient-5);}.cls-15{fill:url(#linear-gradient-6);}.cls-16{fill:#f7b2ce;}.cls-17{fill:url(#White_Black_2-2);}.cls-18{fill:#ff8aba;}.cls-19{fill:url(#White_Black_2-3);}.cls-20{fill:url(#White_Black_2-4);}.cls-21{fill:url(#White_Black_2-5);}</style><linearGradient id="linear-gradient" x1="271.1" y1="-397.33" x2="230.87" y2="-301.18" gradientTransform="translate(14.36 461.64) rotate(4.51)" gradientUnits="userSpaceOnUse"><stop offset="0" stop-color="#a7ded6"></stop><stop offset="1" stop-color="#3cb5ac"></stop></linearGradient><linearGradient id="linear-gradient-2" x1="-2296.64" y1="-770.42" x2="-2210.4" y2="-640.39" gradientTransform="matrix(-0.9, -0.43, -0.43, 0.9, -2084.15, -82.53)" xlink:href="#linear-gradient"></linearGradient><linearGradient id="linear-gradient-3" x1="-3691.01" y1="-1432.32" x2="-3604.77" y2="-1302.28" gradientTransform="matrix(0.9, -0.43, 0.43, 0.9, 4033.37, -82.53)" xlink:href="#linear-gradient"></linearGradient><linearGradient id="linear-gradient-4" x1="91.66" y1="139.78" x2="189.66" y2="218.45" gradientTransform="matrix(1, 0, 0, 1, 0, 0)" xlink:href="#linear-gradient"></linearGradient><linearGradient id="White_Black_2" x1="196.31" y1="174.81" x2="199.49" y2="235.32" gradientUnits="userSpaceOnUse"><stop offset="0" stop-color="#fff"></stop><stop offset="1" stop-color="#231f20"></stop></linearGradient><linearGradient id="linear-gradient-5" x1="197.8" y1="151.55" x2="213.66" y2="151.55" gradientUnits="userSpaceOnUse"><stop offset="0" stop-color="#fff"></stop><stop offset="0.78" stop-color="#535051"></stop><stop offset="1" stop-color="#231f20"></stop></linearGradient><linearGradient id="linear-gradient-6" x1="183.81" y1="151.55" x2="199.67" y2="151.55" xlink:href="#linear-gradient-5"></linearGradient><linearGradient id="White_Black_2-2" x1="199.53" y1="251.07" x2="264.64" y2="281.86" xlink:href="#White_Black_2"></linearGradient><linearGradient id="White_Black_2-3" x1="187.63" y1="69.74" x2="210.12" y2="69.74" xlink:href="#White_Black_2"></linearGradient><linearGradient id="White_Black_2-4" x1="235.05" y1="148.21" x2="256.28" y2="255.17" xlink:href="#White_Black_2"></linearGradient><linearGradient id="White_Black_2-5" x1="150.37" y1="166.16" x2="172.93" y2="220.56" xlink:href="#White_Black_2"></linearGradient></defs><g class="cls-1"><g id="Layer_2" data-name="Layer 2"><g id="Layer_2-2" data-name="Layer 2"><path class="cls-2" d="M179.12,87.81C141.72,63.83,77.29,50,36.2,74.75c-48.12,28.94-42.59,94.93-16.28,129.51s48.57,51.81,44.84,103.57c-5.31,73.84,116.58,89.81,187.2,47C312.25,318.2,331.87,294,383.52,241.55c60.9-61.88,12-158.91-73.67-144.62C244.69,107.78,183.16,90.4,179.12,87.81Z"></path><g class="cls-3"><ellipse class="cls-4" cx="199.64" cy="302.68" rx="92.47" ry="12.71"></ellipse></g><path class="cls-5" d="M312.78,120.35c4,2.9,3.8,14.93-9.46,31s5.75,14.38-1.39,30.09-34.6,19.44-28.86,27.23-34.54,24-53.36,22.88,30-86.22,40.12-83.5,1.93,13.89,21.08-4.8S307.19,116.24,312.78,120.35Z"></path><path class="cls-6" d="M301.36,136.11S244.91,212,220.12,228.05"></path><path class="cls-6" d="M291.14,179.09s-16.79,6.47-29.29,7.12"></path><path class="cls-6" d="M235.94,185.24s-4.19,13.85,0,27.36"></path><path class="cls-7" d="M277.9,209.15l-1-.87c23.08-25.7,52.63-34.39,52.92-34.47l.36,1.24C329.93,175.13,300.72,183.73,277.9,209.15Z"></path><path class="cls-7" d="M328.79,174.84s7.66-8.29,11.28-8.67S343.42,172.06,328.79,174.84Z"></path><path class="cls-7" d="M315.36,181s11-2.41,14.22-.66S329,187.06,315.36,181Z"></path><path class="cls-7" d="M315.06,180.46s7.21-8.68,7.13-12.32S315.9,165.58,315.06,180.46Z"></path><path class="cls-7" d="M302.63,187.32s6.7-9.08,6.4-12.71S302.62,172.42,302.63,187.32Z"></path><path class="cls-7" d="M287.11,199s6.06-9.51,5.51-13.11S286.07,184.16,287.11,199Z"></path><path class="cls-7" d="M302.71,188s11.21-1.23,14.2.85S315.58,195.46,302.71,188Z"></path><path class="cls-7" d="M287.71,198.81s11.21-1.24,14.2.84S300.58,206.31,287.71,198.81Z"></path><path class="cls-8" d="M368.09,178.31c2.8,4.66-2.5,16.92-23,27.7s-.27,17.19-14.31,30.22-43.75,5.09-41.2,15.52-48.08,3.05-66.87-6.15,70-68.71,79.27-61.59-4,15.05,23.63,4.11S364.13,171.71,368.09,178.31Z"></path><path class="cls-6" d="M343.86,189.64s-64.05,43.64-137.42,48.23"></path><path class="cls-6" d="M322.84,228.84s-17.61-5-31.47-11.9"></path><path class="cls-6" d="M282.65,249.06s-22.61-6.74-34.1-17.44"></path><path class="cls-9" d="M37.61,176.88c-2.8,4.66,2.5,16.92,23,27.7s.27,17.19,14.31,30.22,43.75,5.09,41.2,15.52,48.07,3.05,66.87-6.16-70-68.7-79.27-61.58,4,15-23.64,4.11S41.57,170.28,37.61,176.88Z"></path><path class="cls-6" d="M61.84,188.21s64.05,43.64,137.42,48.23"></path><path class="cls-6" d="M82.85,227.41s17.61-5,31.47-11.9"></path><path class="cls-6" d="M123.05,247.62s22.61-6.73,34.09-17.43"></path><path class="cls-7" d="M130.28,202.39l.79-1c-27.36-21.09-58-24.27-58.3-24.3l-.13,1.28C72.94,178.38,103.22,181.53,130.28,202.39Z"></path><path class="cls-7" d="M74,177.88s-9-6.75-12.66-6.48S59.11,177.81,74,177.88Z"></path><path class="cls-7" d="M88.32,181.47s-11.27-.37-14.09,1.93S76.06,189.93,88.32,181.47Z"></path><path class="cls-7" d="M88.53,180.92s-8.67-7.22-9.24-10.82S85,166.44,88.53,180.92Z"></path><path class="cls-7" d="M102,185.41s-8.24-7.71-8.6-11.33S99.31,170.76,102,185.41Z"></path><path class="cls-7" d="M119.39,194.1s-7.69-8.26-7.81-11.89S117.71,179.3,119.39,194.1Z"></path><path class="cls-7" d="M102,186.06s-11.25.82-13.81,3.41S90.74,195.77,102,186.06Z"></path><path class="cls-7" d="M118.76,194s-11.25.82-13.81,3.41S107.46,203.71,118.76,194Z"></path><path class="cls-10" d="M87,119.73c-3.9,3.28-2.94,15.75,11.9,31.54s-5,15.32,3.47,31.14,37.21,17.85,31.77,26.32,37.45,22.58,56.91,20.16-36.9-87.46-47.24-84-1.07,14.54-22.2-3.56S92.54,115.09,87,119.73Z"></path><path class="cls-6" d="M105.55,138.5s25.49,40.94,87.28,83"></path><path class="cls-6" d="M116,179.17s17.73,4.51,32.46,7.46"></path><path class="cls-6" d="M145.9,210.33a161.72,161.72,0,0,0,29.27-1.5"></path><path class="cls-11" d="M199.64,14.24c6.06-10.25,23.76-24,46.05-4s1.92,40,27.6,44.64c21.23,3.88,33.54,26.39,23,41.1-18.05,25.18-.68,45.3-13.65,49.78-12.6,4.36-45-4.53-44.28-26.95s9.49-40.91-5.73-48.34-17.22-25.3-22.61-36S199.64,14.24,199.64,14.24Z"></path><path class="cls-4" d="M244.28,225.87l-44.79,25.28v.55l-.5-.28-.49.28v-.55l-44.79-25.28s17.35-40.34,18-52.38v-.11c.61-12.24-15.56-67.14-15.21-73.49S177.37,84.6,198.5,83.32v-.07l.49,0,.5,0v.07c21.11,1.28,41.6,10.29,41.95,16.57s-15.92,61.57-15.21,73.6c.42,7.35,7.06,25.24,12.15,38.07C241.64,219.74,244.28,225.87,244.28,225.87Z"></path><path class="cls-12" d="M244.28,225.87l-44.79,25.28v.55l-.5-.28-.49.28v-.55l-44.79-25.28s17.35-40.34,18-52.38v-.11c9.88,17.16,38.38,41.44,66.62,38.18C241.64,219.74,244.28,225.87,244.28,225.87Z"></path><path class="cls-13" d="M207.74,168.72s-7-4.34-7-8.05,0-13.08-2.13-18.12c-1.85-4.4.05-8.34,1.12-8.16s7.16,10.35,8.05,15.48,5.92,11.41,5.92,11.41Z"></path><path class="cls-13" d="M189.73,168.72s7-4.21,7-7.92.05-13.21,2.18-18.25c1.85-4.4-.06-8.34-1.12-8.16s-7.16,10.35-8.05,15.48-5.92,11.41-5.92,11.41Z"></path><path class="cls-14" d="M207.74,168.72s-7-4.34-7-8.05,0-13.08-2.13-18.12c-1.85-4.4.05-8.34,1.12-8.16s7.16,10.35,8.05,15.48,5.92,11.41,5.92,11.41Z"></path><path class="cls-15" d="M189.73,168.72s7-4.21,7-7.92.05-13.21,2.18-18.25c1.85-4.4-.06-8.34-1.12-8.16s-7.16,10.35-8.05,15.48-5.92,11.41-5.92,11.41Z"></path><path class="cls-4" d="M190.25,170.22c-45.65,28.93-65.55,26-67.14,22.29a5.2,5.2,0,0,1-.34-1.07c-1.25-4.95-.87-18.88,6.7-44.31,8.23-27.6,29.07-50.8,29.07-50.8l15.26,22.93s-35,55.47-27.6,53.35c5.91-1.69,27.12-9.43,35.54-12.53l3.47-1.27Z"></path><path class="cls-13" d="M156.15,255.52c-3.09,2.29-7.33,4.41-20.34,4.41s-22.56,0-22.56,2.65,10.35,18.58,16.46,18.58,33.44-11.41,33.44-11.41Z"></path><path class="cls-13" d="M244.72,257.48c3.08,2.28,7.33,4.41,20.33,4.41s22.56,0,22.56,2.65-10.35,18.58-16.45,18.58-33.44-11.41-33.44-11.41Z"></path><path class="cls-16" d="M245.69,258l-4.52,16.28s-28.79-7.09-60.48-15.48C147.89,250.11,112,240,101.75,235c-20.17-9.91-11.33-40,16.62-35,16.15,2.86,56.1,21.77,87,37.23C227.94,248.51,245.69,258,245.69,258Z"></path><path class="cls-17" d="M245.69,258l-4.52,16.28s-28.79-7.09-60.48-15.48l24.65-21.6C227.94,248.51,245.69,258,245.69,258Z"></path><path class="cls-11" d="M185.69,66.47c-7.07-4.55-16.66-9.67-12.58-20.81S176,20.24,188.68,14.24c7.48-3.52,27.1-5.15,32.42,11.48,6.53,20.44,3.94,42.66-13.92,39.67S185.69,66.47,185.69,66.47Z"></path><rect class="cls-13" x="177.42" y="45.66" width="42.91" height="9.19" rx="4.33"></rect><path class="cls-18" d="M215.09,16.36s-8.25-2.66-14.16-4.75S211,6.81,215.09,16.36Z"></path><path class="cls-13" d="M210.12,55.54v32a11.24,11.24,0,0,1-11.24,11.25h0a11.24,11.24,0,0,1-11.24-11.25v-32Z"></path><path class="cls-19" d="M210.12,60.71V74.87c-9.71,7.26-18.19,3-22.49-.36V64.35l8.69-2.66A69.83,69.83,0,0,1,210.12,60.71Z"></path><path class="cls-4" d="M275.28,191.25a7,7,0,0,1-.4,1.26c-1.59,3.72-21.49,6.64-67.14-22.29l5-11.41,2.19.8c7.27,2.68,30.58,11.22,36.82,13,7.43,2.12-27.6-53.35-27.6-53.35l16-22.06s20.07,22.33,28.29,49.93C276,172.24,276.45,186.14,275.28,191.25Z"></path><path class="cls-13" d="M217,40.05l0,13.42c-1,12.73-8.72,22.65-18.11,22.65-9.82,0-17.79-10.8-18.19-24.31h0v-6c0-2.87.6-17.2,10.18-15.5s7.06,5.32,19.18,4.2C214.73,34,216.45,37,217,40.05Z"></path><path class="cls-18" d="M155.17,256l4.53,16.28S279,242.94,299.12,233s11.33-40-16.63-35S155.17,256,155.17,256Z"></path><path class="cls-20" d="M275.28,191.25a7,7,0,0,1-.4,1.26c-1.59,3.72-21.49,6.64-67.14-22.29l5-11.41,2.19.8C221.94,169,248.33,192.81,275.28,191.25Z"></path><path class="cls-21" d="M190.25,170.22c-45.65,28.93-65.55,26-67.14,22.29a5.2,5.2,0,0,1-.34-1.07c28.09,2.72,62.44-32.63,62.44-32.63Z"></path></g></g></g></svg>